<?xml version="1.0" standalone="no"?>
<!DOCTYPE svg PUBLIC "-//W3C//DTD SVG 20010904//EN"
 "http://www.w3.org/TR/2001/REC-SVG-20010904/DTD/svg10.dtd">
<svg version="1.0" xmlns="http://www.w3.org/2000/svg"
 width="748.000000pt" height="1094.000000pt" viewBox="0 0 748.000000 1094.000000"
 preserveAspectRatio="xMidYMid meet">

<g transform="translate(0.000000,1094.000000) scale(0.100000,-0.100000)"
fill="#000000" stroke="none">
<path d="M3405 10918 c-196 -32 -319 -109 -424 -268 -61 -91 -69 -106 -51 -95
18 11 10 -19 -15 -60 -23 -38 -24 -39 -25 -13 0 31 -12 42 -39 33 -12 -4 -33
-42 -62 -113 l-44 -107 0 -142 1 -143 -61 0 c-115 0 -285 -46 -370 -99 -22
-14 -57 -34 -77 -45 -74 -42 -148 -126 -148 -169 0 -10 8 -34 19 -55 16 -31
50 -210 69 -357 4 -35 3 -38 -11 -27 -13 11 -18 9 -31 -10 -12 -17 -16 -47
-16 -123 l0 -100 -68 -32 c-54 -26 -79 -46 -127 -104 -33 -40 -67 -84 -76 -98
-31 -51 -129 -315 -129 -348 0 -13 -23 -51 -50 -85 -28 -34 -59 -87 -71 -118
-34 -90 -60 -131 -83 -128 -11 2 -25 13 -31 24 -16 33 -36 54 -45 49 -5 -3
-11 -1 -15 4 -10 18 -65 -10 -83 -43 -13 -23 -18 -66 -22 -171 -5 -119 -9
-147 -28 -182 -25 -48 -29 -49 -92 -27 -32 11 -63 14 -109 10 -86 -7 -120 -34
-156 -123 -44 -106 -84 -162 -118 -163 -34 0 -58 -40 -38 -64 24 -29 -82 -176
-128 -176 -22 0 -35 -30 -26 -60 4 -12 -4 -37 -22 -67 -15 -26 -29 -56 -30
-67 -2 -10 -14 -29 -27 -41 -28 -26 -60 -84 -52 -93 3 -3 0 -13 -8 -21 -16
-17 -82 -171 -123 -285 -17 -47 -26 -95 -27 -147 l-3 -77 -105 -104 c-93 -91
-111 -114 -152 -198 -25 -52 -51 -120 -57 -150 -10 -54 -4 -176 9 -197 8 -12
287 -174 384 -224 93 -47 98 -45 219 84 59 61 153 171 209 242 56 72 117 146
134 166 18 21 33 43 33 51 0 15 132 239 148 250 6 4 20 8 33 8 23 0 31 24 11
36 -16 10 -2 51 46 134 54 93 79 120 109 120 13 0 42 13 64 30 51 37 59 37 93
4 27 -26 49 -26 49 1 0 8 -23 20 -54 29 -52 15 -54 17 -54 52 0 28 8 42 35 67
19 18 47 44 62 59 15 14 46 32 70 39 28 8 46 20 51 35 10 25 42 39 82 35 38
-3 127 16 223 47 66 23 90 37 142 86 l63 58 1 -43 c0 -24 2 -57 3 -74 2 -16 6
-167 11 -335 7 -324 13 -359 61 -431 31 -45 87 -77 166 -93 53 -11 62 -16 63
-36 1 -14 19 -38 44 -59 46 -40 51 -64 25 -127 -11 -27 -16 -72 -17 -149 -1
-82 -5 -113 -15 -121 -9 -6 -18 -45 -24 -105 -5 -52 -15 -116 -23 -144 -8 -27
-17 -84 -21 -125 -4 -42 -13 -82 -21 -92 -15 -17 -53 -241 -53 -314 0 -23 -9
-86 -20 -140 -10 -55 -24 -162 -30 -239 -19 -228 -29 -368 -29 -402 -1 -20
-13 -45 -36 -73 -37 -44 -37 -50 1 -90 71 -76 74 -81 74 -137 0 -38 -4 -55
-15 -59 -17 -7 -49 -87 -42 -106 2 -7 -2 -26 -10 -41 -10 -19 -12 -42 -7 -73
4 -30 2 -49 -7 -60 -7 -8 -16 -52 -20 -97 -13 -125 -23 -172 -47 -202 -12 -15
-22 -36 -22 -47 0 -10 -13 -60 -30 -110 -16 -50 -30 -96 -30 -102 0 -6 -11
-33 -25 -59 -21 -38 -24 -53 -17 -80 6 -23 3 -49 -12 -97 -19 -60 -25 -141
-17 -230 2 -19 -7 -71 -19 -115 -16 -57 -23 -114 -25 -195 -1 -70 -9 -141 -20
-180 -11 -40 -18 -111 -20 -185 -1 -68 -10 -154 -20 -200 -10 -44 -19 -111
-20 -150 -2 -38 -8 -83 -14 -98 -16 -40 -14 -73 6 -110 38 -71 15 -373 -47
-627 -52 -207 -63 -285 -56 -368 16 -190 66 -242 225 -229 127 11 224 51 304
126 93 87 114 171 73 291 -28 82 -32 126 -14 165 9 20 18 25 48 25 31 0 42 6
62 33 46 61 78 124 78 155 0 48 -29 174 -44 192 -7 8 -20 51 -29 95 -14 72
-14 88 -1 160 9 44 20 86 26 92 7 8 8 51 3 120 -6 102 -5 111 19 165 28 63 29
68 26 209 l-2 97 38 48 c43 56 68 110 83 174 34 151 45 193 66 260 14 41 27
113 30 159 3 45 8 87 11 92 3 5 7 45 9 88 2 44 9 90 16 103 8 13 14 65 15 124
1 88 5 106 24 132 20 26 35 103 39 198 1 6 13 23 27 37 17 17 27 41 31 69 5
48 22 98 32 98 14 0 42 72 36 92 -4 10 -2 24 3 31 5 7 20 54 32 106 17 71 30
102 52 124 15 17 28 40 28 53 0 13 11 54 25 91 14 36 34 98 45 137 10 39 33
118 50 176 18 58 40 137 51 175 10 39 41 153 69 255 28 102 55 208 60 235 6
28 16 70 24 95 13 45 14 45 62 48 53 4 74 15 74 42 0 10 21 30 50 48 l50 31
79 -49 78 -50 6 -123 c3 -67 10 -138 16 -157 20 -70 51 -207 67 -295 9 -49 56
-250 105 -445 66 -259 89 -368 87 -405 -2 -38 4 -62 24 -100 14 -28 31 -85 38
-129 12 -77 16 -93 48 -166 9 -19 16 -62 17 -95 1 -33 11 -89 22 -125 23 -70
35 -203 38 -405 1 -138 15 -231 43 -295 13 -29 22 -81 27 -144 3 -55 16 -140
27 -190 11 -50 24 -109 28 -132 5 -22 21 -63 36 -90 23 -42 27 -64 31 -149 7
-177 26 -377 39 -417 5 -16 -43 -146 -80 -218 -22 -41 -58 -191 -52 -214 8
-29 86 -123 138 -164 38 -30 47 -33 85 -27 38 6 43 4 66 -27 49 -66 59 -96 58
-184 0 -74 4 -91 30 -142 45 -86 137 -158 275 -213 131 -53 276 -40 320 26 14
22 18 49 18 129 0 117 -19 188 -91 344 -61 133 -70 153 -78 182 -4 14 -18 45
-30 70 -28 56 -72 230 -86 340 -9 77 -9 86 8 98 24 17 36 152 17 199 -24 62
-44 155 -45 211 0 31 -4 66 -8 76 -4 10 -1 42 6 70 10 36 13 87 9 173 -4 101
-9 132 -32 189 -21 53 -25 77 -21 118 3 28 1 75 -3 104 -6 36 -5 75 5 124 9
51 10 79 3 97 -20 52 -38 155 -32 192 5 31 0 52 -30 111 -23 47 -34 81 -30 95
3 12 -1 43 -10 70 -11 35 -17 107 -21 263 -5 189 -8 219 -26 248 -10 18 -19
50 -19 70 0 21 -7 48 -16 60 -12 18 -14 38 -10 90 3 37 6 90 5 117 0 28 -2
208 -3 400 -2 193 -6 377 -10 410 -3 33 -11 110 -17 170 -7 61 -17 116 -22
124 -14 17 -48 131 -86 286 -16 66 -37 137 -45 157 -9 21 -16 59 -16 85 0 26
-6 81 -14 122 -11 59 -20 78 -42 96 -33 26 -61 119 -43 141 9 11 8 25 -5 59
-13 34 -15 49 -6 64 6 12 8 21 4 21 -3 0 -1 6 5 14 9 11 20 10 68 -5 99 -33
152 -22 210 45 31 35 73 131 73 166 0 29 17 24 25 -7 11 -44 93 -163 112 -163
10 0 33 -9 51 -20 30 -19 45 -20 133 -16 113 6 152 22 212 83 62 65 83 141 92
329 7 150 15 194 34 194 4 0 24 -16 44 -35 20 -19 41 -35 47 -35 5 0 20 -10
32 -22 12 -12 40 -31 62 -43 42 -22 43 -24 49 -110 2 -30 1 -30 -47 -30 -56 0
-73 -19 -26 -29 18 -3 50 -22 73 -41 22 -19 44 -35 49 -35 4 0 8 -7 8 -15 0
-8 9 -24 20 -35 12 -12 20 -33 20 -53 0 -73 54 -186 148 -313 57 -76 104 -99
198 -97 72 2 122 14 196 48 l54 25 49 112 c26 62 59 136 72 165 25 56 28 78
13 88 -6 3 -7 17 -4 30 8 31 -29 163 -71 250 -32 68 -69 110 -204 228 -58 52
-128 174 -112 198 6 10 8 25 5 34 -3 8 -2 15 4 15 12 0 62 -72 62 -91 0 -14
95 -119 108 -119 5 0 19 21 32 48 20 39 25 43 28 25 2 -13 13 -29 24 -37 20
-14 20 -16 4 -56 l-16 -42 45 -50 c41 -46 212 -194 359 -312 116 -93 228 -125
299 -87 20 12 53 30 73 41 49 26 69 44 125 119 57 74 60 95 28 197 -30 96
-208 394 -236 394 -8 0 -13 12 -13 30 0 20 -8 35 -25 46 -14 9 -25 21 -25 28
0 6 -25 40 -55 76 -30 35 -55 68 -55 73 0 14 -60 97 -70 97 -20 0 -113 92
-156 152 -12 18 -52 61 -87 95 -35 35 -79 90 -96 123 -41 76 -65 92 -135 91
-123 -1 -351 -149 -449 -290 -16 -24 -17 -24 -37 -6 -11 10 -27 41 -35 68 -8
28 -24 65 -35 84 -11 19 -27 64 -35 101 -9 37 -30 103 -48 147 -29 70 -41 86
-92 128 -33 27 -91 64 -130 84 -64 32 -72 39 -94 89 -14 32 -39 67 -63 86 -57
48 -86 77 -155 156 -47 52 -63 78 -63 100 0 29 -20 54 -51 65 -16 5 -32 61
-64 227 -8 41 -21 105 -30 143 -14 62 -13 70 4 115 23 60 111 440 111 480 0
22 -90 110 -154 150 -92 59 -158 90 -256 122 -101 33 -327 70 -338 55 -4 -6
-44 -11 -90 -11 l-83 -2 8 47 c4 25 8 96 8 156 0 97 -3 118 -28 183 -16 39
-35 72 -42 72 -17 0 -51 48 -60 83 -4 16 -14 27 -24 27 -11 0 -28 20 -46 55
-91 180 -201 277 -370 325 -78 22 -266 32 -350 18z m-125 -108 c0 -5 -2 -10
-4 -10 -3 0 -8 5 -11 10 -3 6 -1 10 4 10 6 0 11 -4 11 -10z m285 -10 c-3 -5
-12 -7 -20 -3 -21 7 -19 13 6 13 11 0 18 -4 14 -10z m35 -10 c0 -5 -4 -10 -10
-10 -5 0 -10 5 -10 10 0 6 5 10 10 10 6 0 10 -4 10 -10z m-205 -76 c14 5 28
-18 18 -28 -4 -3 -17 -6 -30 -6 -17 0 -23 6 -23 23 0 29 14 45 18 22 2 -9 10
-14 17 -11z m137 -108 c30 -4 32 -15 4 -22 -36 -9 -109 3 -132 22 -17 14 -13
15 46 9 36 -3 73 -7 82 -9z m138 -51 c14 -19 14 -19 -2 -6 -10 7 -18 18 -18
24 0 6 1 8 3 6 1 -2 9 -13 17 -24z m-286 3 c4 7 14 6 30 -1 28 -14 24 -31 -6
-21 -13 4 -28 -2 -45 -18 l-26 -23 18 28 c11 17 13 27 6 27 -7 0 -9 5 -5 11 5
8 9 8 14 -1 5 -8 10 -9 14 -2z m331 -18 c9 -16 14 -30 12 -30 -2 0 -13 14 -25
30 -13 17 -18 30 -13 30 6 0 17 -13 26 -30z m-202 -2 c15 -11 52 -98 77 -180
7 -23 6 -28 -8 -28 -17 0 -26 18 -67 133 -9 26 -18 47 -21 47 -2 0 -24 -36
-50 -81 -44 -76 -67 -100 -81 -85 -3 3 -1 16 6 28 71 132 102 177 122 178 3 0
13 -6 22 -12z m245 -23 c-3 -3 -9 2 -12 12 -6 14 -5 15 5 6 7 -7 10 -15 7 -18z
m92 -38 c0 -16 -18 3 -23 25 -6 22 -5 22 8 4 8 -11 15 -24 15 -29z m-991 -39
c-1 -28 -17 -70 -18 -48 -1 13 -2 13 -11 0 -8 -12 -10 -9 -10 12 0 36 10 58
26 58 8 0 14 -10 13 -22z m1371 -101 c-1 -12 -7 -35 -15 -52 l-13 -30 -1 35
c-1 45 9 81 20 74 5 -3 9 -15 9 -27z m-697 -53 c69 -5 87 -9 87 -21 0 -13 -12
-14 -77 -9 -202 16 -213 18 -213 31 0 10 15 12 58 9 31 -2 96 -6 145 -10z
m467 -124 c0 -5 -4 -10 -10 -10 -5 0 -10 5 -10 10 0 6 5 10 10 10 6 0 10 -4
10 -10z m-545 -40 c7 -12 -24 -12 -80 -1 -40 9 -40 9 17 10 31 0 60 -3 63 -9z
m62 -6 c-3 -3 -12 -4 -19 -1 -8 3 -5 6 6 6 11 1 17 -2 13 -5z m-70 -33 c13 -8
-11 -9 -87 -5 -164 10 -207 24 -58 19 70 -2 135 -8 145 -14z m-489 -7 c18 -5
22 -12 18 -33 -3 -14 -8 -57 -11 -96 -6 -69 -6 -69 10 -40 10 17 16 49 14 75
-3 70 0 95 10 85 12 -14 22 -61 14 -69 -4 -4 -6 -25 -4 -48 1 -23 -2 -44 -9
-48 -7 -4 -10 -26 -8 -56 l3 -49 9 50 c5 28 12 52 16 55 10 7 18 140 8 140 -4
0 -8 5 -8 10 0 13 37 13 45 0 3 -5 11 -7 18 -4 9 3 13 -7 12 -36 0 -44 -15
-56 -16 -12 -1 27 -1 27 -16 -8 -12 -28 -13 -44 -4 -91 8 -37 8 -64 2 -80 -9
-23 -10 -23 -10 -2 -1 12 -6 25 -13 29 -13 8 -5 -103 10 -134 4 -9 5 -35 2
-57 l-6 -40 -8 35 c-5 19 -15 44 -23 55 -14 19 -15 17 -10 -17 6 -40 -7 -52
-18 -18 -3 11 -11 20 -16 20 -8 0 13 -38 38 -70 2 -2 9 2 14 10 8 12 9 10 4
-6 -8 -30 49 -76 137 -111 38 -14 68 -30 68 -35 0 -11 -10 -10 -66 9 -103 34
-192 110 -233 198 -36 76 -44 133 -10 75 16 -27 19 -29 14 -10 -3 14 -11 60
-17 103 -8 59 -14 77 -24 73 -8 -3 -14 -1 -14 4 0 6 6 10 13 10 9 0 12 18 9
70 -5 76 -2 79 56 64z m730 -11 c-10 -2 -26 -2 -35 0 -10 3 -2 5 17 5 19 0 27
-2 18 -5z m-535 -90 c-13 -43 -26 -79 -27 -81 -2 -1 -6 9 -10 23 -10 39 21
135 44 135 17 0 16 -5 -7 -77z m280 9 c-3 -12 -10 -22 -15 -22 -5 0 -7 3 -5 8
2 4 7 16 11 26 9 25 17 16 9 -12z m612 7 c-4 -6 -13 -8 -20 -5 -10 4 -13 -13
-13 -72 0 -47 -6 -92 -15 -117 -21 -51 -22 -21 -2 35 8 23 15 47 15 52 0 6 -7
5 -15 -2 -8 -7 -15 -20 -15 -29 0 -9 -4 -22 -9 -30 -5 -8 -8 26 -7 83 l1 96
43 0 c28 0 41 -4 37 -11z m-1248 -32 c2 -23 0 -28 -7 -17 -12 18 -13 50 -2 50
4 0 8 -15 9 -33z m1293 -29 c-1 -35 -2 -66 -1 -70 2 -15 1 -18 -5 -17 -4 0
-11 -5 -16 -13 -6 -8 -8 1 -4 27 4 22 9 61 13 88 8 66 15 59 13 -15z m-232
-63 c4 -33 7 -122 7 -198 0 -75 3 -137 6 -137 16 0 103 76 144 126 25 31 45
51 45 44 0 -19 -112 -131 -167 -166 -52 -34 -85 -46 -49 -19 11 8 15 15 10 15
-6 0 -9 52 -9 128 0 70 -3 172 -7 227 -8 107 6 94 20 -20z m19 53 c-2 -13 -4
-5 -4 17 -1 22 1 32 4 23 2 -10 2 -28 0 -40z m-98 -29 c16 -77 16 -352 2 -376
-9 -14 -10 -2 -7 52 4 61 -5 241 -18 358 -6 58 10 35 23 -34z m-264 -81 c-3
-57 -11 -136 -16 -177 l-9 -74 32 -30 c18 -16 26 -24 17 -18 -9 6 -57 14 -107
17 -98 7 -117 24 -27 24 60 0 59 -2 70 93 3 31 11 57 16 57 5 0 9 9 9 20 0 11
-4 20 -10 20 -5 0 -10 6 -10 14 0 8 -11 17 -25 20 -14 4 -25 11 -25 16 0 12
53 8 63 -5 5 -5 6 7 2 28 -7 44 2 97 17 97 6 0 7 -36 3 -102z m306 -73 c2 -49
2 -124 1 -166 l-2 -76 -51 -16 c-28 -10 -61 -17 -73 -16 -24 1 -22 2 58 24
l59 16 -5 207 c-2 114 -1 187 3 162 3 -25 8 -85 10 -135z m-1011 117 c0 -7 -4
-11 -9 -7 -5 3 -12 1 -16 -5 -3 -5 -11 -10 -17 -10 -6 0 -3 9 7 20 10 11 15
20 11 20 -4 0 -4 5 0 11 7 13 24 -7 24 -29z m1580 -22 c8 -5 11 -10 5 -10 -5
0 -17 5 -25 10 -8 5 -10 10 -5 10 6 0 17 -5 25 -10z m-1841 -92 c-1 -69 -7
-87 -47 -134 l-34 -39 5 35 c10 79 50 190 68 190 5 0 9 -24 8 -52z m1382 -28
c-8 -21 -9 -16 -7 25 5 61 8 69 13 30 2 -17 -1 -42 -6 -55z m104 23 c-3 -19
-9 -33 -12 -30 -3 3 -2 25 2 49 5 24 10 37 12 30 3 -7 2 -29 -2 -49z m685
-158 c113 -59 209 -111 214 -116 20 -19 -11 -8 -74 27 -36 20 -121 65 -190
101 -69 36 -150 81 -181 99 -31 19 -63 34 -70 34 -11 0 -11 2 0 9 10 7 27 1
55 -18 23 -16 133 -77 246 -136z m-1870 135 c0 -5 -5 -10 -11 -10 -5 0 -7 5
-4 10 3 6 8 10 11 10 2 0 4 -4 4 -10z m-221 -49 c28 -24 19 -43 -17 -38 -21 3
-28 10 -30 30 -4 33 15 36 47 8z m2241 -27 c0 -8 -4 -14 -9 -14 -6 0 -9 9 -8
19 1 22 17 18 17 -5z m-1803 -16 c-3 -8 -6 -5 -6 6 -1 11 2 17 5 13 3 -3 4
-12 1 -19z m-263 1 c-10 -17 -70 -39 -101 -38 l-28 1 25 8 c14 4 41 15 60 24
42 18 53 20 44 5z m1619 -19 c9 0 19 -4 22 -10 3 -5 14 -10 23 -10 29 0 270
-176 258 -188 -3 -2 -28 16 -56 40 -62 54 -175 123 -225 137 -25 7 -45 7 -63
0 -22 -8 -24 -8 -15 2 9 9 9 16 2 25 -17 21 0 38 20 20 10 -9 25 -16 34 -16z
m-2233 -73 c0 -18 -2 -19 -10 -7 -13 20 -13 43 0 35 6 -3 10 -16 10 -28z m445
23 c-16 -5 -55 -16 -85 -24 -50 -13 -110 -32 -165 -51 -18 -6 -18 -5 -2 5 9 6
15 15 12 20 -3 5 -1 11 5 15 5 3 10 2 10 -3 0 -9 187 32 198 43 3 3 17 5 31 4
25 -1 25 -1 -4 -9z m2525 -32 c0 -38 -5 -34 -13 10 -4 21 -3 31 3 27 6 -3 10
-20 10 -37z m-130 9 c0 -2 -12 -14 -27 -28 -20 -18 -24 -19 -13 -4 18 24 40
42 40 32z m-2830 -43 c0 -8 -4 -12 -10 -9 -5 3 -10 10 -10 16 0 5 5 9 10 9 6
0 10 -7 10 -16z m1395 -14 c13 -6 15 -9 5 -9 -8 0 -22 4 -30 9 -18 12 -2 12
25 0z m1377 -52 c-8 -8 -9 -4 -5 13 4 13 8 18 11 10 2 -7 -1 -18 -6 -23z
m-2677 4 c-3 -3 -11 0 -18 7 -9 10 -8 11 6 5 10 -3 15 -9 12 -12z m2555 -86
c22 -28 46 -59 55 -69 9 -10 14 -22 10 -25 -4 -4 -13 2 -21 13 -32 43 -71 92
-109 134 -40 45 -40 45 -7 22 18 -13 51 -46 72 -75z m-2650 35 c0 -27 3 -58 6
-68 5 -12 4 -15 -4 -8 -15 15 -27 125 -13 125 7 0 11 -20 11 -49z m245 -1653
c1 -19 -4 -28 -19 -32 -16 -4 -18 -8 -8 -18 20 -20 14 -77 -14 -124 -28 -48
-40 -57 -28 -21 4 12 9 72 10 132 2 61 6 126 10 145 l7 35 20 -45 c11 -25 21
-57 22 -72z m82 86 c-3 -3 -12 -4 -19 -1 -8 3 -5 6 6 6 11 1 17 -2 13 -5z
m3181 -24 c2 0 1 -4 -2 -8 -3 -5 -19 -7 -36 -4 -22 3 -37 -2 -53 -16 -14 -13
-27 -18 -35 -13 -24 15 47 52 88 46 19 -2 36 -4 38 -5z m-531 -30 c33 -37 41
-38 46 -2 3 17 5 10 7 -23 4 -72 0 -105 -16 -130 -13 -20 -12 -21 29 -20 46 2
77 -12 77 -33 0 -9 -6 -12 -17 -7 -10 4 -42 9 -72 12 -51 6 -53 5 -47 -15 7
-22 1 -26 -66 -38 -53 -9 -47 -25 6 -18 53 8 94 -1 93 -18 0 -7 1 -39 1 -70 2
-52 4 -58 23 -58 17 0 20 4 15 23 -4 12 -10 51 -13 87 -4 49 -3 62 6 54 6 -6
15 -46 19 -90 5 -61 11 -79 23 -82 14 -3 15 4 8 49 -5 29 -7 55 -4 57 8 8 75
-20 75 -31 0 -7 3 -29 6 -49 5 -31 4 -38 -10 -38 -9 0 -16 -5 -16 -10 0 -7
-20 -9 -59 -4 -33 3 -66 2 -76 -3 -16 -9 -14 -13 13 -41 25 -26 30 -39 30 -77
-1 -51 16 -80 27 -46 3 11 1 29 -4 40 -15 28 -14 74 2 69 7 -3 15 -33 20 -69
4 -35 9 -75 12 -89 2 -14 4 -39 4 -56 1 -27 6 -32 42 -43 23 -7 39 -14 36 -17
-2 -2 -16 0 -31 6 -57 21 -59 18 -52 -72 13 -174 17 -286 10 -364 l-6 -82 -37
-6 c-20 -3 -49 -9 -66 -12 -30 -7 -30 -7 -11 14 14 16 23 19 36 12 17 -9 17
-7 7 25 -11 38 -23 45 -30 18 -3 -13 -5 -11 -7 7 -2 16 -5 8 -9 -20 -6 -42 -9
-47 -60 -72 -51 -26 -71 -28 -71 -7 0 5 11 9 25 9 23 0 25 3 20 31 -3 18 -10
39 -15 49 -18 34 -50 188 -62 299 -7 63 -17 116 -23 118 -5 1 -25 -6 -44 -18
-26 -16 -32 -25 -28 -45 2 -13 0 -24 -4 -24 -5 0 -9 8 -10 18 0 15 -1 15 -8
-2 -5 -14 -10 -16 -15 -7 -4 6 -3 18 3 25 6 7 8 15 5 19 -3 3 0 15 6 28 10 18
9 23 -4 31 -9 5 -16 17 -16 27 0 25 57 25 63 -1 3 -10 1 -18 -4 -18 -5 0 -9
-7 -9 -16 0 -11 6 -14 23 -8 31 9 32 11 16 31 -12 14 -12 16 1 11 8 -3 24 3
34 13 13 13 15 19 6 19 -9 0 -11 10 -5 43 9 46 11 133 4 158 -3 10 -10 23 -17
31 -6 8 -9 24 -5 36 4 16 1 22 -10 22 -9 0 -18 3 -20 8 -10 15 -19 105 -11
100 5 -3 27 3 49 13 38 17 39 18 12 18 -35 1 -27 17 13 26 17 4 30 13 30 21 0
12 -8 13 -35 8 -35 -6 -44 3 -24 23 9 9 9 19 0 40 -28 70 16 218 67 226 61 9
72 6 99 -23z m-2990 -28 c1 -15 -7 -36 -20 -49 -29 -32 -43 -29 -18 3 12 15
21 34 21 44 0 13 8 30 14 30 1 0 2 -12 3 -28z m3456 8 c3 -10 0 -18 -5 -17
-20 4 -19 -22 1 -32 26 -15 43 -6 66 31 l18 31 19 -23 c21 -26 15 -36 -22 -44
-14 -2 -33 -7 -43 -11 -24 -10 -67 14 -67 36 0 44 24 65 33 29z m-3135 -7 c-2
-12 3 -18 17 -18 13 0 20 6 19 18 -2 19 11 23 22 5 9 -14 -23 -38 -53 -38 -22
0 -33 27 -16 43 11 11 14 8 11 -10z m3177 -2 c-3 -6 -11 -11 -16 -11 -5 0 -4
6 3 14 14 16 24 13 13 -3z m-4474 -81 c-15 -11 -20 -22 -15 -34 9 -23 -11 -36
-56 -36 -29 1 -32 2 -17 11 9 6 14 15 11 21 -4 6 -1 14 5 18 7 4 14 16 15 26
4 26 69 49 75 26 2 -8 -7 -23 -18 -32z m5424 20 c-28 -12 -47 -12 -40 0 3 6
18 10 33 9 24 0 25 -1 7 -9z m-2101 -25 c20 -30 20 -36 1 -29 -8 4 -21 1 -28
-4 -8 -7 -18 -7 -27 -2 -13 8 -13 10 1 10 12 0 15 7 11 25 -6 33 20 34 42 0z
m56 9 c0 -8 -4 -12 -10 -9 -5 3 -10 10 -10 16 0 5 5 9 10 9 6 0 10 -7 10 -16z
m-110 -10 c0 -8 -4 -12 -10 -9 -5 3 -10 10 -10 16 0 5 5 9 10 9 6 0 10 -7 10
-16z m2013 2 c9 -7 17 -20 17 -29 0 -8 6 -17 13 -20 7 -2 0 -16 -22 -35 -32
-30 -59 -43 -46 -22 3 6 -3 10 -14 10 -12 0 -21 5 -21 11 0 6 -7 9 -15 5 -21
-8 -19 0 11 34 27 30 50 31 39 1 -5 -12 -4 -13 6 -4 17 17 -6 43 -37 43 -13 0
-24 5 -24 10 0 15 72 12 93 -4z m71 0 c-10 -8 -21 -12 -24 -10 -5 6 21 24 34
24 6 0 1 -6 -10 -14z m-4001 -15 c4 -1 7 -5 7 -11 0 -5 -19 -11 -42 -11 -28
-1 -34 -3 -17 -6 29 -4 60 -49 43 -61 -6 -4 -13 -15 -17 -25 -9 -24 -84 -21
-78 3 2 8 5 38 7 65 2 28 3 51 4 52 0 1 19 0 43 -2 23 -2 45 -4 50 -4z m3264
-7 c-3 -3 -12 -4 -19 -1 -8 3 -5 6 6 6 11 1 17 -2 13 -5z m-3657 -24 c0 -11
-2 -20 -4 -20 -2 0 -6 9 -9 20 -3 11 -1 20 4 20 5 0 9 -9 9 -20z m2430 -14 c0
-9 12 -16 33 -18 l32 -3 12 -105 c16 -154 16 -200 -2 -200 -12 0 -14 -13 -9
-75 10 -142 -17 -76 -50 120 -1 6 -4 15 -8 20 -3 6 -11 39 -18 75 -6 36 -17
86 -25 112 -9 31 -10 47 -3 45 6 -1 13 4 15 11 3 6 -1 12 -9 12 -10 0 -9 3 2
10 21 14 30 12 30 -4z m1224 1 c-3 -8 0 -25 5 -40 9 -23 14 -25 45 -20 24 4
44 0 60 -11 29 -18 53 -56 36 -56 -5 0 -10 6 -10 13 0 6 -14 20 -32 30 -27 16
-33 16 -46 3 -23 -23 -3 -70 34 -77 29 -6 28 -6 -11 -14 -29 -6 -35 -10 -22
-14 10 -4 18 -10 18 -14 -3 -23 4 -27 47 -27 53 0 76 -13 87 -47 9 -31 -3 -29
-15 2 -8 22 -16 25 -54 25 -25 0 -47 -3 -49 -7 -3 -5 5 -24 18 -43 17 -27 36
-40 78 -54 31 -10 58 -24 60 -31 3 -6 -14 -21 -38 -34 -32 -17 -42 -27 -38
-41 9 -35 28 -42 68 -25 44 18 45 18 45 6 0 -5 -13 -14 -30 -21 -34 -14 -40
-30 -11 -30 22 0 95 -29 89 -36 -3 -2 -19 1 -36 7 -17 6 -42 9 -56 7 l-25 -3
20 -32 c19 -31 25 -33 75 -33 30 0 54 -4 54 -10 0 -5 -24 -10 -54 -10 -58 0
-75 -10 -51 -30 8 -7 15 -23 15 -36 0 -99 -118 63 -192 264 -11 31 -27 64 -34
73 -8 8 -14 21 -14 27 0 6 -22 60 -50 118 -27 58 -50 112 -50 119 0 8 -8 27
-17 43 -26 44 -9 60 74 71 7 0 10 -5 7 -12z m-3725 -42 c0 -5 -4 -3 -9 5 -5 8
-9 22 -9 30 0 16 17 -16 18 -35z m2374 12 c3 -21 4 -21 15 3 11 21 12 16 7
-37 -5 -54 -4 -62 10 -57 8 3 15 16 15 27 0 58 59 -104 65 -179 4 -43 2 -46
-26 -56 -32 -11 -30 -27 4 -29 17 -1 18 -2 5 -6 -14 -3 -18 -15 -18 -49 l0
-45 48 5 47 5 -43 -11 c-35 -9 -43 -15 -39 -30 3 -10 1 -18 -5 -18 -22 0 -53
37 -55 64 -1 16 -6 32 -11 35 -5 3 -12 16 -16 29 -4 12 -10 20 -14 18 -4 -2
-8 37 -8 87 -1 51 -5 134 -9 185 -7 82 -6 92 8 86 9 -3 18 -15 20 -27z m-3317
-27 c7 0 -1 -25 -9 -31 -5 -4 -26 3 -47 15 -29 15 -36 24 -28 33 8 10 17 9 45
-2 20 -8 37 -15 39 -15z m5608 -12 c29 -35 33 -44 19 -47 -9 -2 -32 14 -55 38
-44 48 -45 51 -19 51 10 0 35 -19 55 -42z m-4633 -35 c15 -34 23 -75 27 -137
5 -100 -8 -110 -29 -24 -6 29 -19 63 -27 76 -11 17 -12 26 -3 35 15 15 15 91
-1 81 -7 -4 -8 -3 -4 4 11 18 13 16 37 -35z m4513 10 c42 -44 46 -68 12 -77
-32 -8 -45 -1 -86 46 -33 39 -34 41 -15 54 30 22 51 17 89 -23z m-4238 -39
c-4 -14 -9 -24 -12 -21 -3 2 -2 17 2 31 3 15 9 25 11 22 3 -3 2 -17 -1 -32z
m-1294 4 c-7 -7 -12 -8 -12 -2 0 14 12 26 19 19 2 -3 -1 -11 -7 -17z m-203
-23 c-20 -34 -54 -65 -71 -65 -10 0 40 82 56 92 28 19 34 6 15 -27z m159 25
c15 0 -21 -70 -50 -97 -15 -13 -22 -14 -47 -3 l-30 12 22 32 c41 59 51 67 72
62 11 -3 26 -6 33 -6z m5782 -16 c0 -2 -18 -8 -41 -14 -22 -6 -48 -14 -57 -17
-14 -5 -15 -4 -4 8 23 25 102 43 102 23z m-750 -4 c0 -5 -9 -10 -20 -10 -11 0
-20 5 -20 10 0 6 9 10 20 10 11 0 20 -4 20 -10z m426 -36 l38 -45 -30 -24
c-33 -26 -37 -24 -86 37 -29 37 -30 40 -13 58 28 31 50 24 91 -26z m-5436 17
c-5 -11 -15 -23 -21 -27 -6 -3 -3 5 6 20 20 30 30 35 15 7z m1190 2 c0 -14 2
-15 9 -5 6 10 10 9 14 -7 6 -25 -5 -27 -27 -5 -18 18 -21 34 -6 34 6 0 10 -8
10 -17z m400 2 c0 -8 -2 -15 -4 -15 -2 0 -6 7 -10 15 -3 8 -1 15 4 15 6 0 10
-7 10 -15z m2266 -82 c3 -44 2 -63 -4 -53 -5 8 -12 47 -15 85 -4 49 -3 65 4
53 5 -10 12 -48 15 -85z m461 45 c-2 -13 -4 -5 -4 17 -1 22 1 32 4 23 2 -10 2
-28 0 -40z m-3364 -15 c8 -32 19 -82 23 -111 7 -52 6 -53 -35 -92 -30 -29 -60
-45 -109 -59 -97 -28 -138 -32 -153 -15 -13 16 -47 18 -81 5 -14 -5 -49 -12
-79 -16 -51 -6 -55 -5 -55 14 0 15 9 21 38 26 31 6 55 23 121 90 53 53 103 93
142 113 33 16 78 46 100 66 57 50 69 47 88 -21z m3531 41 c22 -22 20 -25 -9
-12 -14 6 -25 15 -25 20 0 13 17 9 34 -8z m-4385 -13 l24 -18 -21 -34 c-12
-19 -26 -40 -31 -48 -8 -12 -14 -12 -40 -1 -38 15 -39 29 -5 80 30 45 39 47
73 21z m1214 -23 c-33 -43 -16 -88 32 -88 22 0 26 4 21 18 -5 15 -4 15 9 -2
10 -14 26 -18 60 -18 31 1 45 -3 43 -10 -6 -17 -90 -21 -100 -5 -6 9 -8 9 -8
0 0 -8 -15 -13 -40 -13 -36 0 -40 -2 -40 -25 0 -28 -15 -34 -24 -9 -10 27 -7
66 5 58 8 -5 8 -1 0 14 -6 11 -11 35 -11 53 0 26 3 31 20 26 11 -3 23 -1 26 4
3 5 8 9 11 9 3 0 1 -6 -4 -12z m3161 -9 c-8 -14 -24 -10 -24 6 0 9 6 12 15 9
8 -4 12 -10 9 -15z m-112 -26 c2 -40 3 -47 10 -58 11 -19 19 -93 10 -99 -5 -3
-14 25 -21 62 -6 37 -14 79 -17 95 -4 17 -2 27 5 27 6 0 12 -12 13 -27z
m-4499 3 c32 -7 34 -17 8 -40 -15 -13 -26 -15 -52 -8 -32 8 -41 31 -11 24 8
-2 12 2 9 10 -2 7 -10 12 -16 10 -7 -1 -10 2 -6 8 4 6 14 9 23 6 10 -2 29 -7
45 -10z m5160 -4 c-2 -6 3 -9 10 -7 18 7 32 -6 56 -52 24 -48 28 -73 5 -29
-11 20 -19 25 -26 18 -8 -8 -7 -16 2 -27 7 -9 8 -15 2 -15 -6 0 -26 30 -45 66
-28 51 -32 64 -19 61 10 -2 16 -8 15 -15z m-1199 -29 c10 -66 7 -211 -5 -190
-6 9 -11 36 -11 59 0 24 -7 48 -16 57 -14 15 -15 14 -9 -1 3 -10 2 -18 -3 -18
-6 0 -10 8 -10 18 0 9 -3 28 -6 42 -4 20 -3 22 5 10 9 -13 11 -12 11 3 0 23
18 57 29 57 5 0 11 -17 15 -37z m694 12 c6 -14 16 -25 21 -25 14 0 43 -82 33
-92 -12 -12 -52 8 -52 26 0 7 -11 30 -25 51 -20 29 -23 40 -14 51 16 20 24 18
37 -11z m-766 -67 c6 -75 -4 -65 -18 18 -9 52 -8 62 1 52 7 -7 15 -39 17 -70z
m1593 -6 c-7 -7 -75 68 -75 83 0 6 18 -10 41 -34 22 -24 38 -46 34 -49z
m-5125 53 c25 -27 23 -39 -20 -95 l-19 -25 -27 26 -26 27 27 46 c15 25 30 46
34 46 4 0 18 -11 31 -25z m4544 -127 c79 -164 116 -258 115 -286 0 -12 -2 -13
-6 -3 -3 7 -13 21 -22 30 -15 15 -42 67 -90 171 -38 83 -90 240 -80 240 6 0
43 -69 83 -152z m-437 120 c-3 -8 -6 -5 -6 6 -1 11 2 17 5 13 3 -3 4 -12 1
-19z m-4374 -16 c-3 -12 -10 -22 -15 -22 -5 0 -7 3 -5 8 2 4 7 16 11 26 9 25
17 16 9 -12z m4464 -4 c-3 -7 -5 -2 -5 12 0 14 2 19 5 13 2 -7 2 -19 0 -25z
m-4161 -50 c-41 -62 -70 -99 -60 -78 14 30 88 140 92 136 2 -2 -12 -28 -32
-58z m-159 -38 c-6 -16 -15 -30 -19 -30 -11 0 -10 4 4 35 16 35 29 31 15 -5z
m3408 20 c-3 -5 -14 -10 -23 -9 -14 0 -13 2 3 9 27 11 27 11 20 0z m-3675 -15
c10 -13 9 -15 -8 -15 -22 0 -36 13 -25 24 10 10 20 7 33 -9z m3895 -37 c15
-45 19 -138 6 -118 -6 8 -11 25 -11 38 0 13 -4 31 -9 40 -4 9 -11 35 -14 56
-7 47 10 37 28 -16z m-2258 20 c-3 -8 -6 -5 -6 6 -1 11 2 17 5 13 3 -3 4 -12
1 -19z m1919 -64 c8 3 14 1 14 -4 0 -6 -11 -10 -25 -10 -23 0 -25 3 -24 48 l1
47 10 -43 c7 -31 13 -42 24 -38z m2644 66 c0 -5 -2 -10 -4 -10 -3 0 -8 5 -11
10 -3 6 -1 10 4 10 6 0 11 -4 11 -10z m-6219 -10 c17 0 9 -19 -11 -25 -11 -4
-17 -11 -14 -17 4 -6 10 -5 16 3 14 21 6 -1 -21 -53 -13 -26 -31 -49 -40 -51
-11 -3 -8 -7 12 -15 20 -9 34 -9 48 -1 14 7 24 7 33 0 7 -6 16 -8 19 -4 4 3 7
1 7 -5 0 -6 -4 -14 -10 -17 -17 -11 -11 -19 29 -42 26 -15 41 -19 48 -12 7 7
16 5 28 -7 14 -15 18 -15 26 -3 7 11 9 9 9 -8 0 -25 -27 -32 -48 -11 -6 6 -14
9 -17 6 -4 -3 2 -14 12 -24 52 -53 51 -62 -1 -16 -67 58 -79 63 -71 29 7 -28
-15 -51 -42 -44 -14 4 -13 5 5 6 24 1 24 1 26 45 1 20 -5 33 -21 43 -13 9 -25
14 -27 12 -2 -2 -53 -83 -113 -179 -189 -301 -189 -301 -218 -288 -14 6 -25
16 -25 23 0 17 51 117 57 111 3 -3 -2 -19 -10 -36 -9 -17 -13 -38 -10 -46 3
-7 0 -14 -6 -14 -16 0 -13 -27 3 -33 10 -4 33 27 77 101 63 110 87 148 176
286 57 88 56 94 -3 114 -27 9 -35 7 -53 -11 -11 -12 -21 -16 -21 -10 0 7 5 15
10 18 12 7 4 25 -11 25 -5 0 -9 -9 -9 -21 0 -12 -4 -17 -11 -14 -6 4 -8 13 -5
20 6 16 -10 31 -39 38 -13 3 -8 5 13 6 18 0 46 8 63 16 16 9 35 13 41 9 7 -5
9 -2 5 9 -3 8 1 21 9 27 8 7 14 17 14 23 0 18 33 48 48 42 7 -3 18 -5 23 -5z
m1469 -30 c0 -4 -3 -22 -7 -41 -5 -28 -7 -30 -14 -14 -4 11 -8 32 -8 47 -1 20
3 26 14 22 8 -4 15 -10 15 -14z m4493 7 c-4 -6 4 -8 21 -5 22 4 26 2 26 -18 0
-30 12 -30 50 -2 21 15 33 19 41 11 7 -7 0 -14 -23 -24 -32 -13 -162 -101
-183 -123 -5 -6 -25 -25 -44 -41 l-34 -30 28 38 27 37 -25 0 c-25 0 -47 33
-33 47 3 4 6 2 6 -4 0 -6 7 -14 16 -17 9 -3 12 -2 9 5 -9 14 13 38 33 34 9 -1
16 -10 16 -19 -2 -20 20 -21 37 0 10 12 10 20 1 35 -7 10 -12 25 -12 33 0 8
-5 16 -12 18 -23 8 0 33 30 34 19 1 29 -3 25 -9z m-5711 -19 c-7 -7 -12 -8
-12 -2 0 14 12 26 19 19 2 -3 -1 -11 -7 -17z m386 -33 c-9 -9 -48 27 -41 38 3
5 15 0 26 -12 12 -11 18 -23 15 -26z m5242 29 c0 -17 -22 -14 -28 4 -2 7 3 12
12 12 9 0 16 -7 16 -16z m-4463 -241 c-1 -57 -5 -103 -9 -103 -12 0 -9 -35 3
-47 8 -8 5 -17 -10 -32 l-21 -21 0 60 c0 33 4 60 10 60 6 0 11 63 11 168 2
148 3 159 10 92 5 -41 8 -121 6 -177z m3893 216 c0 -5 -4 -9 -10 -9 -5 0 -10
7 -10 16 0 8 5 12 10 9 6 -3 10 -10 10 -16z m-5569 -26 c-12 -20 -14 -14 -5
12 4 9 9 14 11 11 3 -2 0 -13 -6 -23z m139 23 c0 -2 -7 -7 -16 -10 -8 -3 -12
-2 -9 4 6 10 25 14 25 6z m530 -1 c0 -8 -50 -85 -55 -85 -3 0 5 20 17 45 19
38 38 58 38 40z m151 -58 c-13 -13 -26 -3 -16 12 3 6 11 8 17 5 6 -4 6 -10 -1
-17z m5576 1 c-4 -15 4 -38 23 -70 33 -53 35 -58 20 -58 -5 0 -17 15 -26 33
-9 17 -25 42 -36 54 -19 21 -19 22 -1 41 24 26 26 26 20 0z m-6387 8 c0 -3 -4
-8 -10 -11 -5 -3 -10 -1 -10 4 0 6 5 11 10 11 6 0 10 -2 10 -4z m1090 -26 c0
-5 -7 -10 -16 -10 -8 0 -12 5 -9 10 3 6 10 10 16 10 5 0 9 -4 9 -10z m5145 0
c3 -5 -1 -10 -10 -10 -9 0 -13 5 -10 10 3 6 8 10 10 10 2 0 7 -4 10 -10z
m-1882 -15 c-3 -9 -8 -14 -10 -11 -3 3 -2 9 2 15 9 16 15 13 8 -4z m418 -12
c13 -16 12 -17 -3 -4 -10 7 -18 15 -18 17 0 8 8 3 21 -13z m-2865 0 c-7 -7
-110 -33 -133 -33 -12 0 -27 9 -33 20 -10 19 -7 19 80 18 49 -1 88 -3 86 -5z
m-186 -13 c0 -5 -2 -10 -4 -10 -3 0 -8 5 -11 10 -3 6 -1 10 4 10 6 0 11 -4 11
-10z m2417 -22 c-3 -7 -5 -2 -5 12 0 14 2 19 5 13 2 -7 2 -19 0 -25z m2149
-17 c-3 -4 -17 -6 -30 -4 l-25 5 22 18 c18 15 23 16 30 4 4 -8 6 -18 3 -23z
m-5526 9 c0 -5 -2 -10 -4 -10 -3 0 -8 5 -11 10 -3 6 -1 10 4 10 6 0 11 -4 11
-10z m968 -8 c2 -7 -7 -12 -22 -12 -27 0 -35 15 -13 23 17 7 30 3 35 -11z
m-1638 -2 c0 -5 -5 -10 -11 -10 -5 0 -7 5 -4 10 3 6 8 10 11 10 2 0 4 -4 4
-10z m825 0 c3 -5 -1 -10 -10 -10 -9 0 -13 5 -10 10 3 6 8 10 10 10 2 0 7 -4
10 -10z m4995 -20 c0 -5 -9 -10 -21 -10 -11 0 -17 5 -14 10 3 6 13 10 21 10 8
0 14 -4 14 -10z m410 -24 c0 -5 -7 -3 -15 4 -8 7 -12 17 -9 22 7 10 24 -9 24
-26z m-6388 2 c-7 -7 -12 -8 -12 -2 0 14 12 26 19 19 2 -3 -1 -11 -7 -17z
m788 -14 c0 -8 -4 -12 -10 -9 -5 3 -10 13 -10 21 0 8 5 12 10 9 6 -3 10 -13
10 -21z m5387 4 c-3 -8 -6 -5 -6 6 -1 11 2 17 5 13 3 -3 4 -12 1 -19z m-1374
5 c-7 -2 -19 -2 -25 0 -7 3 -2 5 12 5 14 0 19 -2 13 -5z m897 -56 c0 -6 -9 -2
-20 8 -16 14 -29 16 -75 10 -37 -4 -55 -3 -55 4 0 6 5 12 10 12 6 1 15 3 20 4
6 1 24 3 41 4 21 1 28 5 23 14 -4 6 7 -1 24 -17 18 -17 32 -34 32 -39z m540
22 c0 -11 -47 -12 -53 -1 -3 4 8 7 24 8 16 1 29 -3 29 -7z m-6279 -42 c-10 -9
-11 -8 -5 6 3 10 9 15 12 12 3 -3 0 -11 -7 -18z m4393 -3 c3 -8 2 -12 -4 -9
-6 3 -10 10 -10 16 0 14 7 11 14 -7z m-3784 -9 c0 -8 -4 -15 -10 -15 -5 0 -7
7 -4 15 4 8 8 15 10 15 2 0 4 -7 4 -15z m1280 -17 c0 -10 -2 -18 -3 -18 -2 0
-11 8 -20 18 -15 16 -15 18 3 18 13 0 20 -7 20 -18z m-1912 -18 c-9 -27 -28
-50 -28 -35 0 9 30 65 35 65 2 0 -1 -14 -7 -30z m823 -3 l-24 -22 19 27 c10
14 21 24 23 22 3 -3 -6 -15 -18 -27z m4963 19 c-19 -14 -19 -15 1 -21 50 -16
59 -25 20 -19 -97 17 -119 22 -100 23 11 1 31 8 45 16 34 19 60 20 34 1z
m-5262 -38 c-7 -7 -12 -8 -12 -2 0 14 12 26 19 19 2 -3 -1 -11 -7 -17z m3828
7 c5 3 12 0 16 -6 4 -8 3 -9 -4 -5 -7 4 -12 4 -12 0 0 -10 121 -367 131 -386
18 -35 -1 -17 -27 23 -25 40 -48 108 -80 234 -8 33 -21 79 -29 103 -14 40 -20
73 -8 44 2 -6 9 -10 13 -7z m90 0 c0 -8 -2 -15 -4 -15 -2 0 -6 7 -10 15 -3 8
-1 15 4 15 6 0 10 -7 10 -15z m864 -44 c26 -16 35 -30 38 -56 4 -37 -10 -49
-19 -15 -3 11 -9 17 -14 14 -5 -3 -19 2 -31 10 -18 13 -19 16 -6 16 9 0 20 -5
24 -11 4 -7 10 -7 16 -1 7 7 1 19 -18 36 -16 14 -32 26 -36 26 -5 0 -8 8 -8
18 1 16 1 16 10 0 6 -9 25 -26 44 -37z m-4764 26 c0 -2 -10 -12 -22 -23 l-23
-19 19 23 c18 21 26 27 26 19z m-418 -29 c-7 -7 -12 -8 -12 -2 0 14 12 26 19
19 2 -3 -1 -11 -7 -17z m-161 -15 c-12 -20 -14 -14 -5 12 4 9 9 14 11 11 3 -2
0 -13 -6 -23z m6599 -27 c0 -6 -11 1 -25 16 -14 15 -25 30 -25 34 0 4 11 -3
25 -16 14 -13 25 -28 25 -34z m-6464 -2 c-4 -9 -9 -15 -11 -12 -3 3 -3 13 1
22 4 9 9 15 11 12 3 -3 3 -13 -1 -22z m784 11 c-7 -8 -20 -15 -28 -15 -13 0
-12 3 4 15 25 19 40 19 24 0z m-401 -14 c-99 -138 -187 -241 -234 -274 -20
-15 -11 1 30 48 33 39 93 109 133 158 40 48 76 87 79 87 3 0 -1 -9 -8 -19z
m3481 9 c0 -5 -4 -10 -10 -10 -5 0 -10 5 -10 10 0 6 5 10 10 10 6 0 10 -4 10
-10z m1435 0 c3 -5 -3 -10 -14 -10 -12 0 -21 5 -21 10 0 6 6 10 14 10 8 0 18
-4 21 -10z m-936 -60 c0 -9 -4 -8 -9 5 -5 11 -9 27 -9 35 0 9 4 8 9 -5 5 -11
9 -27 9 -35z m1305 28 c28 -26 77 -144 82 -200 3 -29 -2 -43 -22 -65 -14 -15
-35 -44 -46 -65 -25 -44 -33 -46 -49 -17 -8 15 -8 24 0 32 6 6 11 28 11 50 0
30 -7 46 -35 75 -20 20 -38 47 -41 59 -3 13 -10 21 -15 18 -17 -11 -20 60 -4
98 14 34 19 37 55 37 26 0 47 -7 64 -22z m-341 -8 c3 -11 1 -20 -4 -20 -5 0
-9 9 -9 20 0 11 2 20 4 20 2 0 6 -9 9 -20z m-4678 -12 c-9 -36 -79 -168 -88
-168 -5 0 9 33 31 74 30 54 36 73 24 69 -12 -4 -10 2 7 20 30 33 34 34 26 5z
m5965 -32 c0 -12 -14 5 -31 39 -8 16 -6 15 10 -4 12 -13 21 -28 21 -35z m-809
-10 c14 -30 33 -61 48 -80 12 -14 12 -19 1 -29 -10 -9 -14 -9 -17 1 -3 7 -14
21 -25 32 -12 11 -16 20 -9 25 16 9 13 25 -3 19 -19 -7 -65 39 -51 53 15 15
45 3 56 -21z m859 24 c0 -5 -4 -10 -10 -10 -5 0 -10 5 -10 10 0 6 5 10 10 10
6 0 10 -4 10 -10z m-2426 -42 c-9 -57 -11 -58 -16 -4 -2 32 1 46 10 46 9 0 10
-11 6 -42z m-2484 -18 c11 0 24 -9 30 -20 8 -15 17 -19 34 -14 32 8 100 -33
90 -55 -25 -58 -33 -92 -34 -133 0 -26 -4 -49 -8 -52 -5 -3 -32 -2 -61 3 -94
15 -140 84 -141 213 0 105 4 114 42 83 16 -14 38 -25 48 -25z m2617 28 c-3 -8
-6 -5 -6 6 -1 11 2 17 5 13 3 -3 4 -12 1 -19z m-402 -18 c-3 -5 -10 -10 -16
-10 -5 0 -9 5 -9 10 0 6 7 10 16 10 8 0 12 -4 9 -10z m-65 -36 c0 -8 -4 -12
-10 -9 -5 3 -10 10 -10 16 0 5 5 9 10 9 6 0 10 -7 10 -16z m520 -118 c6 -17 7
-33 2 -38 -5 -5 -16 22 -25 61 -20 82 -22 128 -2 56 7 -27 18 -63 25 -79z
m-4302 53 c-7 -12 -18 -30 -24 -41 -9 -14 -13 -16 -17 -6 -2 7 7 25 21 41 31
32 37 35 20 6z m5692 18 c0 -2 -10 -12 -22 -23 l-23 -19 19 23 c18 21 26 27
26 19z m610 -34 c0 -7 -39 17 -46 28 -3 6 5 3 20 -6 14 -10 26 -19 26 -22z
m-1663 21 c-3 -3 -12 -4 -19 -1 -8 3 -5 6 6 6 11 1 17 -2 13 -5z m1163 -35
l25 -21 -33 19 c-19 10 -39 24 -45 32 -10 12 -9 12 8 3 11 -6 31 -21 45 -33z
m-5420 -42 c0 -7 -9 -18 -21 -25 -21 -13 -21 -13 -3 12 22 29 24 31 24 13z
m5510 -37 c6 -11 9 -20 7 -20 -2 0 -12 9 -22 20 -10 11 -13 20 -7 20 6 0 16
-9 22 -20z m-6270 -11 c0 -6 17 -28 38 -48 21 -20 27 -27 13 -15 -65 51 -59
50 -97 13 -20 -19 -52 -59 -72 -89 -45 -69 -41 -64 -47 -58 -10 10 42 98 90
152 47 53 75 70 75 45z m745 -19 c-3 -5 -12 -10 -18 -10 -7 0 -6 4 3 10 19 12
23 12 15 0z m4908 -17 c-7 -2 -19 -2 -25 0 -7 3 -2 5 12 5 14 0 19 -2 13 -5z
m413 -106 l6 -72 -23 34 c-19 28 -20 36 -10 53 10 17 9 20 -8 25 -20 5 -19 23
2 51 17 21 28 -9 33 -91z m-1606 61 c0 -6 -10 -22 -22 -35 -22 -24 -80 -31
-121 -14 -17 6 -17 8 5 19 21 10 113 40 131 41 4 1 7 -4 7 -11z m-3961 -124
c-7 -38 -15 -61 -17 -52 -4 21 17 132 24 125 3 -3 -1 -36 -7 -73z m5472 -18
c6 -30 9 -61 6 -70 -8 -20 -41 -21 -57 -1 -17 20 2 65 27 65 13 0 14 3 5 12
-14 14 -16 62 -3 53 5 -3 15 -30 22 -59z m-5693 24 c6 0 12 -4 12 -10 0 -6 -9
-6 -22 -1 -13 4 -29 6 -35 4 -7 -3 -13 1 -13 7 0 8 8 10 23 6 12 -3 28 -6 35
-6z m5792 -63 c0 -20 -30 -57 -46 -57 -16 0 -18 23 -4 51 12 21 50 26 50 6z
m-5604 -99 c-9 -40 -26 -91 -37 -113 -10 -22 -17 -31 -13 -20 3 11 17 64 31
118 30 112 43 123 19 15z m-340 -375 c-3 -3 -13 0 -22 8 -14 12 -14 14 3 27
16 11 18 11 21 -8 2 -12 1 -24 -2 -27z m2397 -610 c-7 -2 -19 -2 -25 0 -7 3
-2 5 12 5 14 0 19 -2 13 -5z m-208 -53 c-3 -5 -12 -10 -18 -10 -7 0 -6 4 3 10
19 12 23 12 15 0z m126 -287 c-12 -20 -14 -14 -5 12 4 9 9 14 11 11 3 -2 0
-13 -6 -23z m-56 -133 c-3 -5 -11 -10 -16 -10 -6 0 -7 5 -4 10 3 6 11 10 16
10 6 0 7 -4 4 -10z"/>
<path d="M2961 9834 c0 -11 3 -14 6 -6 3 7 2 16 -1 19 -3 4 -6 -2 -5 -13z"/>
<path d="M3007 9750 c3 -11 7 -20 9 -20 2 0 4 9 4 20 0 11 -4 20 -9 20 -5 0
-7 -9 -4 -20z"/>
<path d="M3501 9854 c0 -11 3 -14 6 -6 3 7 2 16 -1 19 -3 4 -6 -2 -5 -13z"/>
<path d="M5101 7324 c0 -11 3 -14 6 -6 3 7 2 16 -1 19 -3 4 -6 -2 -5 -13z"/>
<path d="M5072 7308 c-7 -7 -12 -37 -12 -67 0 -30 3 -52 6 -48 5 5 23 127 19
127 0 0 -6 -5 -13 -12z"/>
<path d="M5281 6990 c-1 -3 -2 -61 -3 -130 -1 -141 9 -260 23 -281 7 -9 8 38
3 136 -6 136 -19 288 -23 275z"/>
<path d="M5206 6935 c-6 -18 13 -29 41 -23 28 5 22 33 -8 36 -17 2 -29 -3 -33
-13z"/>
<path d="M5041 6918 c0 -16 2 -18 6 -8 3 8 11 18 17 22 7 5 4 8 -6 8 -12 0
-18 -7 -17 -22z"/>
<path d="M5077 6924 c-4 -4 -7 -16 -7 -26 0 -10 -4 -18 -9 -18 -22 0 46 -371
78 -428 5 -8 10 22 14 74 5 82 3 92 -20 134 -27 48 -55 148 -46 164 4 5 1 6
-5 2 -8 -5 -12 3 -12 23 0 23 5 30 23 33 14 2 22 10 22 23 0 20 -25 32 -38 19z"/>
<path d="M5172 6825 c0 -27 3 -72 8 -100 l7 -50 1 60 c1 33 -3 78 -7 100 l-9
40 0 -50z"/>
<path d="M5191 6584 c0 -11 3 -14 6 -6 3 7 2 16 -1 19 -3 4 -6 -2 -5 -13z"/>
<path d="M2476 7541 c-3 -5 7 -11 22 -14 30 -6 45 0 37 14 -8 12 -52 12 -59 0z"/>
<path d="M4620 7511 c0 -17 5 -31 10 -31 6 0 10 11 10 24 0 14 -4 28 -10 31
-6 4 -10 -7 -10 -24z"/>
<path d="M5953 7210 c9 -6 17 -18 17 -25 0 -18 18 -19 56 -5 36 14 21 27 -41
35 -39 5 -46 4 -32 -5z"/>
<path d="M4502 7395 c0 -16 2 -22 5 -12 2 9 2 23 0 30 -3 6 -5 -1 -5 -18z"/>
<path d="M4530 7380 c0 -5 5 -10 11 -10 5 0 7 5 4 10 -3 6 -8 10 -11 10 -2 0
-4 -4 -4 -10z"/>
<path d="M4551 7334 c0 -11 3 -14 6 -6 3 7 2 16 -1 19 -3 4 -6 -2 -5 -13z"/>
<path d="M4522 7320 c0 -14 2 -19 5 -12 2 6 2 18 0 25 -3 6 -5 1 -5 -13z"/>
<path d="M4560 7296 c0 -9 5 -16 10 -16 6 0 10 4 10 9 0 6 -4 13 -10 16 -5 3
-10 -1 -10 -9z"/>
<path d="M5634 7229 c-3 -6 -2 -15 4 -21 6 -6 12 -6 16 1 4 6 2 11 -4 11 -6 0
-8 5 -5 10 3 6 4 10 1 10 -3 0 -8 -5 -12 -11z"/>
<path d="M6483 6800 c-15 -40 2 -49 22 -11 18 36 19 41 2 41 -7 0 -18 -13 -24
-30z"/>
</g>
</svg>
