<?xml version="1.0" standalone="no"?>
<!DOCTYPE svg PUBLIC "-//W3C//DTD SVG 20010904//EN"
 "http://www.w3.org/TR/2001/REC-SVG-20010904/DTD/svg10.dtd">
<svg version="1.0" xmlns="http://www.w3.org/2000/svg"
 width="687.000000pt" height="561.000000pt" viewBox="0 0 687.000000 561.000000"
 preserveAspectRatio="xMidYMid meet">
<metadata>
Created by potrace 1.16, written by Peter Selinger 2001-2019
</metadata>
<g transform="translate(0.000000,561.000000) scale(0.100000,-0.100000)"
fill="#000000" stroke="none">
<path d="M2970 4297 c14 -8 50 -23 80 -32 121 -37 143 -48 197 -102 30 -31 49
-45 42 -32 -24 46 -61 89 -96 110 -30 19 -65 29 -218 63 l-30 7 25 -14z"/>
<path d="M3191 4266 c31 -21 91 -93 136 -162 21 -32 -5 36 -27 71 -27 43 -91
102 -120 110 -20 5 -18 2 11 -19z"/>
<path d="M2755 4270 c-3 -5 -13 -6 -23 -3 -9 3 -14 3 -10 -2 4 -4 -29 -23 -75
-41 -51 -21 -90 -44 -104 -61 -27 -32 -31 -52 -6 -28 9 9 26 20 38 25 28 11
135 24 135 17 0 -4 -20 -18 -45 -33 -25 -14 -44 -28 -42 -30 2 -2 43 12 91 32
66 27 94 34 119 29 56 -12 51 -17 -37 -40 -48 -12 -90 -26 -94 -30 -4 -5 1 -5
11 -2 10 4 56 15 103 24 61 13 89 15 101 7 29 -18 25 -29 -22 -52 -31 -15 -45
-18 -46 -9 0 6 -4 3 -9 -8 -4 -12 -20 -38 -34 -59 -28 -42 -38 -86 -11 -50 20
26 19 14 -5 -48 -20 -53 -20 -53 0 -30 11 13 27 48 37 78 9 30 25 62 35 71 24
22 24 8 -2 -86 -12 -40 -19 -76 -16 -78 9 -9 46 109 46 147 0 33 5 41 36 60
34 22 36 22 50 4 12 -15 14 -40 10 -124 -4 -78 -2 -99 6 -80 5 14 11 51 11 82
1 32 5 58 9 58 12 0 20 -47 16 -90 -3 -39 6 -43 14 -5 4 15 6 16 10 5 23 -66
27 -91 23 -121 -4 -23 -3 -28 3 -15 7 17 9 17 15 4 3 -9 -3 -33 -14 -54 -40
-80 -16 -229 42 -259 40 -21 73 -5 100 47 12 24 24 38 26 32 2 -7 12 -10 22
-7 20 5 31 41 31 100 0 19 7 62 16 95 8 33 13 65 12 70 -5 15 -37 -126 -44
-194 -3 -32 -10 -58 -16 -58 -10 0 -7 48 8 144 8 46 -17 102 -48 112 -28 9
-99 -6 -105 -22 -10 -26 -23 -14 -23 19 0 34 22 63 50 67 32 5 49 -1 54 -17 3
-10 4 1 3 25 -3 50 6 53 33 10 12 -20 20 -27 20 -16 0 9 -16 35 -35 59 -29 34
-35 47 -30 70 4 16 2 36 -4 46 -10 17 -10 17 -11 -2 0 -13 -10 -2 -26 30 -14
28 -30 56 -36 63 -7 7 -7 12 -1 12 17 0 97 -76 128 -119 37 -55 44 -45 9 15
-43 73 -87 111 -149 129 -30 9 -58 21 -61 27 -4 6 1 8 15 4 56 -16 62 -14 16
8 -95 44 -302 75 -320 46z m301 -116 c51 -39 72 -81 66 -132 -5 -54 -28 -54
-47 0 -7 21 -29 65 -48 98 -41 67 -31 79 29 34z m102 -144 c9 -24 8 -30 -4
-30 -7 0 -14 6 -14 13 0 6 -3 23 -7 36 -9 35 12 18 25 -19z m-37 -72 l1 -33
10 28 c15 42 58 29 58 -19 0 -17 -5 -21 -19 -17 -10 3 -29 0 -41 -7 -26 -14
-26 -15 -34 38 -5 34 -3 42 9 42 10 0 15 -11 16 -32z m109 -163 c6 -8 9 -23 5
-36 -5 -14 -3 -19 3 -15 19 12 2 -135 -21 -184 -41 -85 -88 -51 -88 63 0 102
40 175 82 149 27 -17 24 3 -3 22 -17 12 -18 16 -6 16 8 0 21 -7 28 -15z m-82
-22 c-47 -56 -58 -192 -18 -245 21 -28 21 -29 2 -19 -48 26 -56 176 -12 245
12 20 26 36 32 36 6 0 5 -8 -4 -17z"/>
<path d="M3180 3700 c-6 -11 -14 -42 -17 -68 -4 -37 -1 -52 14 -71 11 -14 25
-21 31 -17 15 9 16 62 2 71 -16 10 -12 38 5 31 8 -3 15 -1 15 4 0 15 -37 12
-43 -2 -10 -25 -7 10 3 37 6 16 14 23 22 19 7 -4 8 -3 4 4 -11 18 -24 14 -36
-8z m25 -110 c3 -5 3 -15 -1 -21 -6 -11 -23 6 -24 24 0 10 18 9 25 -3z"/>
<path d="M3248 4124 c32 -40 61 -131 63 -194 0 -28 2 -31 9 -15 5 11 9 14 9 7
1 -7 6 -10 11 -7 6 3 10 -2 10 -12 1 -11 7 -5 15 16 18 40 19 97 3 107 -8 5
-9 1 -5 -12 7 -18 7 -18 -8 0 -14 19 -15 17 -16 -25 l0 -44 -17 65 c-18 69
-50 123 -84 141 -16 9 -14 3 10 -27z m109 -186 c-3 -8 -6 -5 -6 6 -1 11 2 17
5 13 3 -3 4 -12 1 -19z"/>
<path d="M2562 4095 c-7 -14 -12 -37 -12 -49 0 -13 -12 -48 -26 -78 l-25 -53
6 50 c3 28 9 58 12 69 3 12 1 16 -6 12 -17 -11 -51 -134 -51 -187 0 -27 9 -75
21 -107 12 -31 24 -75 28 -98 4 -23 28 -77 54 -121 36 -60 47 -90 48 -124 1
-35 2 -39 8 -19 l7 25 14 -25 c16 -29 25 -114 11 -105 -6 3 -7 -5 -2 -22 11
-41 -5 -93 -29 -93 -35 0 -90 -33 -97 -58 -6 -25 14 -72 30 -72 6 0 3 8 -6 18
-20 22 -22 53 -5 70 9 9 14 5 22 -21 16 -49 76 -73 210 -86 236 -23 419 -9
464 36 30 30 20 43 -39 49 l-44 5 38 -22 c20 -13 37 -26 37 -30 0 -43 -582
-30 -626 14 -3 2 6 17 20 32 14 15 33 47 42 71 9 24 21 41 26 38 7 -4 7 0 0
12 -5 11 -12 39 -16 64 -4 25 -8 54 -10 65 -1 11 -10 35 -20 53 -10 20 -18 64
-21 120 -2 54 -12 109 -25 147 -13 38 -24 96 -27 158 -3 54 -9 100 -13 102 -4
3 -11 -33 -15 -79 -7 -93 3 -145 41 -215 23 -41 36 -149 16 -125 -20 22 -74
128 -60 116 13 -10 11 2 -8 64 -29 92 -42 170 -27 161 7 -4 9 0 6 11 -4 17 16
60 82 178 l27 49 -31 -33 c-32 -34 -39 -25 -21 24 14 35 7 42 -8 9z m63 -957
c-15 -49 -55 -62 -55 -18 0 19 24 39 48 40 9 0 11 -7 7 -22z"/>
<path d="M2661 4110 c-1 -3 -8 -39 -15 -80 -8 -41 -17 -84 -21 -95 -7 -18 -6
-18 9 2 20 26 39 112 33 150 -2 15 -5 26 -6 23z"/>
<path d="M3652 4079 c7 -5 38 -8 68 -8 66 1 56 6 -23 12 -32 2 -52 0 -45 -4z"/>
<path d="M3624 4056 c-3 -8 -4 -29 -2 -48 3 -29 4 -27 8 15 5 48 3 58 -6 33z"/>
<path d="M3798 4063 c12 -2 32 -2 45 0 12 2 2 4 -23 4 -25 0 -35 -2 -22 -4z"/>
<path d="M2932 4032 c-6 -15 -23 -67 -37 -117 -15 -49 -28 -96 -31 -103 -2 -7
0 -10 6 -7 5 3 19 33 31 66 27 73 33 72 14 -1 -8 -30 -13 -56 -11 -57 10 -11
48 109 53 166 6 73 -7 100 -25 53z"/>
<path d="M3908 4053 c12 -2 32 -2 45 0 12 2 2 4 -23 4 -25 0 -35 -2 -22 -4z"/>
<path d="M2699 4023 c-18 -49 -31 -137 -26 -181 8 -76 22 -64 25 21 1 45 6
106 11 135 9 58 6 66 -10 25z"/>
<path d="M2750 4018 c-7 -18 -14 -92 -16 -166 -3 -131 -3 -134 24 -175 38 -60
52 -94 53 -136 1 -29 4 -23 19 37 l18 74 -24 46 c-13 26 -24 58 -25 72 0 23
-1 23 -9 5 -5 -11 -9 -40 -10 -65 l-2 -45 -19 40 c-20 42 -25 80 -10 71 5 -4
7 10 4 31 -2 21 0 83 5 138 6 55 9 101 7 103 -1 2 -8 -12 -15 -30z m71 -394
l-8 -29 -5 27 c-3 15 -1 25 3 22 5 -3 9 0 9 7 0 7 2 10 5 8 2 -3 1 -18 -4 -35z"/>
<path d="M4013 4043 c9 -2 25 -2 35 0 9 3 1 5 -18 5 -19 0 -27 -2 -17 -5z"/>
<path d="M4135 3961 c61 -13 176 -22 142 -11 -15 4 -62 11 -105 14 -54 4 -65
3 -37 -3z"/>
<path d="M3264 3932 c8 -16 19 -58 24 -93 l10 -64 1 53 c1 53 -17 114 -39 127
-7 4 -6 -5 4 -23z"/>
<path d="M3651 3930 c-1 -8 -8 -73 -16 -145 -8 -71 -14 -157 -14 -190 1 -35 9
19 20 130 10 105 17 197 15 205 -3 13 -4 13 -5 0z"/>
<path d="M4440 3930 c30 -5 81 -12 113 -15 l57 -6 -6 -67 c-4 -37 -4 -65 -2
-62 3 3 9 35 12 71 6 55 5 67 -8 72 -8 3 -61 8 -118 11 -82 4 -92 3 -48 -4z"/>
<path d="M3690 3919 c0 -5 8 -9 18 -10 9 0 29 -3 44 -5 14 -2 30 1 34 7 5 9 2
10 -9 6 -9 -3 -19 -3 -21 2 -7 11 -66 12 -66 0z"/>
<path d="M3812 3908 c5 -13 48 -22 48 -9 0 9 -24 21 -42 21 -5 0 -8 -5 -6 -12z"/>
<path d="M2637 3880 c-19 -67 -2 -180 33 -222 l20 -23 -16 45 c-9 25 -19 86
-22 135 -5 62 -10 82 -15 65z"/>
<path d="M3680 3882 c0 -5 6 -9 13 -9 6 0 18 -2 26 -4 7 -2 16 2 18 9 3 8 -6
12 -26 12 -17 0 -31 -4 -31 -8z"/>
<path d="M3750 3880 c0 -4 9 -10 20 -13 11 -3 20 -2 20 3 0 4 -9 10 -20 13
-11 3 -20 2 -20 -3z"/>
<path d="M3364 3867 c20 -63 18 -95 -8 -139 -21 -36 -26 -58 -26 -109 0 -173
-48 -368 -101 -413 -17 -14 -25 -26 -19 -26 26 0 68 63 95 142 22 67 29 110
35 225 6 121 10 146 30 178 18 29 21 45 16 81 -3 25 -11 53 -17 62 -9 15 -10
15 -5 -1z"/>
<path d="M3800 3869 c0 -6 10 -9 23 -8 12 2 28 0 35 -5 7 -4 16 -5 20 -1 10
10 -20 25 -50 25 -16 0 -28 -5 -28 -11z"/>
<path d="M2602 3763 c3 -78 8 -97 31 -132 37 -56 49 -52 21 7 -13 26 -29 83
-35 127 -6 44 -13 82 -16 85 -3 3 -3 -36 -1 -87z"/>
<path d="M2987 3789 c-4 -20 -5 -43 -2 -50 3 -8 1 -27 -4 -44 -8 -29 -9 -28
-29 35 -21 64 -21 64 -21 24 -1 -27 10 -63 34 -110 19 -38 35 -74 35 -81 0 -6
5 -15 10 -18 7 -4 8 3 4 21 -5 20 -4 25 5 20 7 -4 3 9 -8 30 -12 21 -21 48
-21 59 1 14 7 9 21 -18 25 -47 35 -43 14 5 -8 20 -18 64 -23 99 -8 61 -8 62
-15 28z"/>
<path d="M2841 3772 c-1 -36 18 -81 44 -102 13 -11 15 -10 9 6 -5 13 -4 16 3
9 6 -5 16 -34 22 -64 12 -57 48 -147 56 -139 4 4 -44 151 -85 258 -18 47 -20
50 -17 20 2 -19 8 -44 12 -55 6 -15 5 -17 -4 -9 -7 6 -18 33 -26 60 -12 45
-13 46 -14 16z"/>
<path d="M4592 3745 c0 -16 2 -22 5 -12 2 9 2 23 0 30 -3 6 -5 -1 -5 -18z"/>
<path d="M3592 3710 c0 -19 2 -27 5 -17 2 9 2 25 0 35 -3 9 -5 1 -5 -18z"/>
<path d="M2704 3653 c8 -67 23 -120 42 -148 18 -25 18 -10 -1 51 -22 71 -18
85 10 34 31 -59 31 -45 -1 46 -17 47 -32 74 -41 74 -13 0 -14 -10 -9 -57z"/>
<path d="M2874 3603 c-18 -43 -35 -135 -23 -127 5 2 16 -10 25 -28 20 -41 43
-67 69 -80 17 -9 16 -7 -4 16 -14 14 -22 28 -19 31 3 3 11 -1 18 -10 7 -8 17
-15 23 -15 6 0 -3 15 -20 33 -18 17 -41 52 -51 75 -18 39 -18 49 -7 93 16 58
10 64 -11 12z"/>
<path d="M2901 3558 c-2 -49 43 -128 72 -128 6 0 0 11 -12 24 -13 14 -32 49
-42 78 -13 40 -18 47 -18 26z"/>
<path d="M2681 3550 c0 -8 4 -24 9 -35 5 -13 9 -14 9 -5 0 8 -4 24 -9 35 -5
13 -9 14 -9 5z"/>
<path d="M4551 3475 c-7 -49 -14 -103 -17 -120 -4 -25 -3 -27 5 -9 13 29 34
176 29 200 -2 11 -10 -21 -17 -71z"/>
<path d="M2672 3421 c11 -43 66 -114 101 -132 14 -8 9 3 -16 28 -21 22 -37 44
-35 49 2 8 -50 94 -57 94 -2 0 2 -18 7 -39z"/>
<path d="M2780 3454 c0 -16 59 -104 69 -104 5 0 -6 24 -26 53 -41 61 -43 63
-43 51z"/>
<path d="M3663 3453 c9 -2 25 -2 35 0 9 3 1 5 -18 5 -19 0 -27 -2 -17 -5z"/>
<path d="M3760 3439 c60 -10 108 -9 55 2 -22 4 -53 8 -70 7 -22 0 -19 -3 15
-9z"/>
<path d="M2748 3413 c25 -35 83 -89 61 -57 -23 34 -67 84 -74 84 -4 0 3 -12
13 -27z"/>
<path d="M3883 3423 c15 -2 37 -2 50 0 12 2 0 4 -28 4 -27 0 -38 -2 -22 -4z"/>
<path d="M2880 3380 c11 -22 23 -40 25 -40 3 0 -4 18 -15 40 -11 22 -23 40
-25 40 -3 0 4 -18 15 -40z"/>
<path d="M4030 3404 c97 -17 134 -16 50 2 -36 7 -78 13 -95 12 -16 0 4 -6 45
-14z"/>
<path d="M4198 3383 c12 -2 32 -2 45 0 12 2 2 4 -23 4 -25 0 -35 -2 -22 -4z"/>
<path d="M4300 3370 c19 -5 62 -11 95 -14 l60 -5 -65 14 c-36 8 -78 14 -95 14
-30 -1 -30 -1 5 -9z"/>
<path d="M3738 3353 c-9 -2 -19 -10 -22 -18 -3 -10 2 -9 24 3 37 21 49 9 27
-26 -24 -36 -59 -114 -54 -119 3 -2 27 -6 55 -10 31 -3 49 -10 45 -16 -3 -6
-1 -7 6 -3 6 4 72 -1 146 -11 l134 -17 -4 -26 c-3 -16 0 -12 8 10 9 22 23 37
38 41 24 7 24 7 -3 8 -14 1 -28 -4 -30 -10 -3 -9 -57 -4 -193 15 -105 15 -191
29 -193 31 -2 2 6 13 17 24 12 12 16 21 10 21 -8 0 -8 4 -1 13 9 11 58 6 269
-25 142 -21 267 -37 278 -37 31 2 -100 24 -322 55 -112 16 -203 31 -203 34 0
3 7 13 15 24 13 17 20 17 77 7 108 -18 531 -72 535 -67 6 6 -95 22 -357 56
-129 17 -239 36 -244 41 -10 9 -28 10 -58 2z"/>
<path d="M3530 3317 c-28 -41 -31 -47 -26 -47 7 0 49 61 44 65 -2 2 -10 -6
-18 -18z"/>
<path d="M2356 3284 c-72 -38 -142 -114 -160 -174 -8 -26 -20 -59 -27 -71 -7
-14 -13 -70 -14 -139 -1 -63 -5 -140 -9 -170 -7 -46 -5 -61 12 -90 11 -19 39
-72 63 -117 l43 -82 35 28 c20 16 56 40 81 55 25 16 68 51 96 79 58 59 124
111 224 177 37 25 87 60 110 78 24 18 55 32 70 32 15 0 44 7 63 15 46 19 123
19 176 0 23 -8 69 -34 104 -58 34 -25 78 -52 97 -61 33 -15 153 -137 191 -193
9 -13 36 -36 61 -52 54 -34 97 -87 171 -206 31 -49 88 -130 126 -178 39 -48
71 -92 71 -97 0 -5 4 -12 10 -15 18 -11 -2 29 -37 72 -36 45 -44 65 -15 41 31
-27 48 -32 20 -6 -34 33 -46 78 -58 213 l-9 110 4 -121 c3 -67 9 -134 15 -149
23 -61 -3 -29 -107 126 -83 127 -120 173 -162 204 -29 23 -62 57 -71 76 -24
46 -150 166 -194 184 -19 8 -70 37 -112 65 -42 27 -92 54 -112 60 -49 13 -124
13 -159 -1 -15 -6 -40 -12 -55 -13 -16 -2 -36 -3 -46 -4 -10 -1 -39 -17 -63
-36 -76 -58 -183 -110 -212 -102 -35 8 -160 94 -231 158 -39 34 -53 43 -42 26
36 -54 230 -198 268 -198 29 0 21 -16 -26 -54 -49 -41 -58 -43 -94 -18 -52 36
-56 36 -36 3 10 -17 26 -34 36 -37 26 -8 23 -15 -21 -58 -41 -40 -57 -43 -126
-22 -11 4 -3 -2 18 -11 l38 -18 -45 -37 -44 -38 -21 40 c-11 21 -24 47 -29 57
-5 10 -16 32 -25 48 -14 28 -14 32 1 42 15 10 13 12 -10 12 -24 1 -28 5 -28
31 0 16 7 55 15 87 12 42 14 80 10 134 -6 63 -3 84 13 125 11 27 23 62 27 78
8 38 107 135 163 160 39 18 50 18 119 8 42 -7 82 -17 90 -24 7 -6 16 -8 19 -5
16 15 -122 58 -184 57 -15 -1 -49 -12 -76 -26z"/>
<path d="M4572 3250 c0 -19 2 -27 5 -17 2 9 2 25 0 35 -3 9 -5 1 -5 -18z"/>
<path d="M3771 3236 c2 -2 87 -16 189 -30 102 -14 198 -29 214 -31 16 -3 27
-2 23 1 -4 4 -91 20 -194 35 -179 27 -242 34 -232 25z"/>
<path d="M3465 3220 c-3 -5 -1 -10 4 -10 6 0 11 5 11 10 0 6 -2 10 -4 10 -3 0
-8 -4 -11 -10z"/>
<path d="M4338 3193 c7 -3 16 -2 19 1 4 3 -2 6 -13 5 -11 0 -14 -3 -6 -6z"/>
<path d="M3153 3155 c0 -22 2 -30 4 -17 2 12 2 30 0 40 -3 9 -5 -1 -4 -23z"/>
<path d="M4535 3166 c-25 -38 -142 -300 -160 -356 -9 -30 -28 -65 -41 -77 -14
-13 -21 -23 -16 -23 22 0 50 40 82 115 70 166 159 345 172 345 35 0 93 -24
115 -48 32 -34 84 -139 108 -217 10 -33 23 -76 30 -95 19 -53 4 -213 -24 -270
-14 -29 -16 -38 -5 -25 29 35 45 84 46 143 1 31 6 60 11 63 6 4 3 25 -7 55 -9
26 -16 60 -16 76 0 57 -58 200 -107 265 -28 36 -37 41 -116 58 -55 12 -59 12
-72 -9z"/>
<path d="M4230 3170 c8 -5 28 -10 44 -10 39 0 30 6 -19 13 -27 4 -35 3 -25 -3z"/>
<path d="M3848 3141 c5 -13 17 -26 28 -27 10 -2 33 -5 49 -8 56 -10 150 -18
144 -12 -3 3 -49 12 -103 20 -70 11 -102 20 -112 33 -13 16 -13 16 -6 -6z"/>
<path d="M4171 3153 c0 -5 4 -17 9 -28 8 -18 9 -17 9 8 1 15 -3 27 -9 27 -5 0
-10 -3 -9 -7z"/>
<path d="M3717 3133 c-4 -3 -7 -11 -7 -17 0 -7 3 -7 8 0 4 7 16 14 27 17 19 5
19 5 -1 6 -11 0 -24 -2 -27 -6z"/>
<path d="M4310 3131 c8 -6 14 -24 13 -45 -1 -20 3 -33 8 -30 21 13 1 84 -24
84 -8 0 -7 -4 3 -9z"/>
<path d="M3310 3064 c19 -9 75 -20 125 -25 49 -6 119 -16 155 -25 36 -8 76
-14 90 -14 26 0 132 -47 179 -78 14 -10 45 -24 67 -31 87 -28 212 -158 265
-276 10 -22 18 -34 18 -26 1 21 -56 119 -100 173 -21 26 -39 56 -39 68 0 11
-6 36 -14 54 -13 32 -15 33 -90 40 -61 5 -90 14 -141 42 -36 20 -65 37 -65 38
0 4 217 -30 251 -39 22 -5 27 -3 33 17 12 48 7 63 -22 65 -15 1 -74 9 -131 17
-96 13 -106 13 -127 -2 -13 -9 -24 -21 -24 -26 0 -5 10 0 23 12 l22 21 124
-19 c68 -11 125 -21 127 -23 7 -7 -9 -47 -20 -47 -6 0 -54 7 -106 16 -52 8
-139 19 -193 24 -54 5 -106 14 -116 19 -10 6 -60 11 -112 11 -52 1 -112 6
-134 11 -74 19 -80 19 -45 3z m741 -192 c16 -43 5 -45 -41 -8 -25 20 -51 36
-57 36 -7 0 -13 4 -13 9 0 4 23 4 51 -2 40 -8 53 -15 60 -35z"/>
<path d="M4085 3071 c-3 -5 -1 -12 5 -16 5 -3 10 1 10 9 0 18 -6 21 -15 7z"/>
<path d="M4366 2978 c-15 -40 -38 -92 -51 -115 -29 -53 -24 -56 9 -5 24 35 79
182 72 189 -2 2 -16 -29 -30 -69z"/>
<path d="M4081 3023 c0 -12 -4 -30 -7 -40 -5 -17 -5 -17 6 0 6 10 9 28 7 40
-4 22 -4 22 -6 0z"/>
<path d="M4703 2740 c0 -25 2 -35 4 -22 2 12 2 32 0 45 -2 12 -4 2 -4 -23z"/>
<path d="M4751 2739 c0 -14 -13 -48 -27 -74 -14 -28 -19 -43 -10 -36 20 17 49
95 43 117 -3 14 -5 12 -6 -7z"/>
<path d="M4290 2717 c0 -5 32 -77 70 -160 77 -166 82 -195 55 -302 -37 -140
-90 -218 -173 -251 -57 -22 -47 -29 13 -8 26 8 59 29 72 45 24 28 76 41 85 22
2 -5 16 -15 33 -23 68 -35 105 -146 113 -340 4 -107 -6 -195 -32 -285 -4 -11
3 -2 13 20 75 151 63 441 -22 566 -25 36 -91 76 -133 81 -28 3 -26 5 35 46 35
23 60 42 54 42 -6 0 -27 -11 -47 -25 -20 -13 -36 -23 -36 -21 0 25 42 90 80
124 40 34 52 55 70 110 39 117 85 140 132 64 12 -20 40 -59 61 -86 49 -63 79
-123 123 -244 73 -201 70 -172 39 -386 -42 -300 -77 -411 -179 -565 -56 -83
-202 -224 -281 -271 l-59 -35 -401 4 c-220 2 -425 4 -455 6 -30 1 -226 4 -435
5 -414 2 -556 9 -830 40 -278 32 -313 41 -369 97 -27 27 -28 30 -22 103 5 58
4 71 -5 56 -7 -10 -12 -36 -13 -57 0 -22 -1 -39 -2 -39 -1 0 -23 28 -50 62
-27 35 -74 90 -105 124 -31 34 -73 94 -94 136 l-37 76 12 93 c19 157 32 190
103 262 34 35 78 76 97 91 l35 28 -33 -19 c-39 -21 -129 -105 -160 -148 l-21
-30 0 55 c0 30 8 93 18 139 24 102 11 95 -19 -12 -14 -50 -21 -102 -20 -145 1
-37 -5 -103 -13 -147 -37 -184 -14 -243 169 -450 64 -71 122 -142 130 -156 33
-65 111 -111 211 -126 24 -3 40 -9 37 -14 -17 -28 325 -109 561 -133 206 -21
276 -26 475 -32 195 -6 548 6 655 21 228 32 379 62 326 64 -53 2 -10 10 113
20 146 13 195 30 300 105 192 137 329 363 366 601 19 121 10 110 89 110 77 0
110 16 80 38 -14 11 -10 20 38 77 62 74 146 238 163 320 19 88 12 110 -44 148
-67 45 -116 44 -162 -2 -19 -19 -34 -38 -34 -44 0 -5 17 8 39 29 42 43 66 47
114 23 86 -43 93 -73 48 -201 -37 -108 -104 -223 -166 -290 -47 -50 -54 -53
-98 -53 l-48 0 8 68 c14 122 9 203 -15 250 -13 23 -39 92 -58 152 -22 67 -52
133 -75 168 -21 31 -55 81 -75 110 -20 30 -49 59 -65 66 l-29 12 23 45 c12 24
31 58 41 74 l19 30 -26 -30 c-14 -16 -36 -50 -49 -74 -12 -24 -35 -56 -50 -71
-15 -16 -35 -55 -47 -98 -20 -64 -61 -132 -81 -132 -4 0 -3 21 2 48 16 79 2
144 -51 250 -57 114 -101 190 -101 179z"/>
<path d="M4870 2652 c0 -34 75 -361 106 -464 33 -109 36 -128 31 -202 -3 -44
-14 -109 -25 -143 -11 -35 -16 -60 -11 -58 15 10 52 148 57 216 4 57 -1 88
-37 210 -22 79 -57 211 -76 294 -33 137 -45 177 -45 147z"/>
<path d="M4851 2585 c-1 -22 -10 -59 -21 -83 -11 -23 -15 -40 -10 -37 17 10
41 92 37 126 -4 34 -4 33 -6 -6z"/>
<path d="M4702 2558 c7 -15 15 -23 17 -17 2 6 -4 18 -13 27 -15 15 -15 15 -4
-10z"/>
<path d="M4201 2495 c-2 -70 -17 -116 -60 -188 -41 -66 -87 -118 -136 -151
-21 -14 -32 -26 -26 -26 6 0 41 -22 77 -50 36 -27 71 -50 77 -51 7 0 3 -4 -8
-9 -28 -12 -92 -12 -118 1 -21 10 -21 10 -3 -5 21 -17 97 -21 154 -10 l31 6
-43 22 c-24 12 -67 40 -95 61 l-50 39 57 52 c63 57 117 139 141 215 l17 49 33
-55 c18 -30 35 -55 37 -55 7 0 -27 63 -52 95 -13 18 -24 49 -27 75 -3 41 -4
40 -6 -15z"/>
<path d="M2070 2449 c-145 -14 -165 -24 -255 -121 -72 -77 -142 -178 -169
-242 -24 -58 -20 -55 32 25 81 123 216 264 285 299 56 28 69 30 171 31 71 0
104 3 91 9 -23 10 -52 10 -155 -1z"/>
<path d="M3443 1990 c0 -25 2 -35 4 -22 2 12 2 32 0 45 -2 12 -4 2 -4 -23z"/>
<path d="M2262 1950 c0 -14 2 -19 5 -12 2 6 2 18 0 25 -3 6 -5 1 -5 -13z"/>
<path d="M2241 1914 c0 -11 3 -14 6 -6 3 7 2 16 -1 19 -3 4 -6 -2 -5 -13z"/>
<path d="M3472 1910 c0 -14 2 -19 5 -12 2 6 2 18 0 25 -3 6 -5 1 -5 -13z"/>
<path d="M3452 1880 c0 -19 2 -27 5 -17 2 9 2 25 0 35 -3 9 -5 1 -5 -18z"/>
<path d="M2271 1884 c0 -11 3 -14 6 -6 3 7 2 16 -1 19 -3 4 -6 -2 -5 -13z"/>
<path d="M2251 1844 c0 -11 3 -14 6 -6 3 7 2 16 -1 19 -3 4 -6 -2 -5 -13z"/>
<path d="M3481 1834 c0 -11 3 -14 6 -6 3 7 2 16 -1 19 -3 4 -6 -2 -5 -13z"/>
<path d="M2281 1824 c0 -11 3 -14 6 -6 3 7 2 16 -1 19 -3 4 -6 -2 -5 -13z"/>
<path d="M3462 1820 c0 -14 2 -19 5 -12 2 6 2 18 0 25 -3 6 -5 1 -5 -13z"/>
<path d="M5719 1796 c19 -20 37 -36 40 -36 2 0 -6 11 -19 25 l-23 25 44 0 c24
0 139 -7 254 -15 222 -15 271 -17 264 -11 -4 4 -314 30 -494 42 l-100 6 34
-36z"/>
<path d="M2262 1790 c0 -14 2 -19 5 -12 2 6 2 18 0 25 -3 6 -5 1 -5 -13z"/>
<path d="M3492 1780 c0 -14 2 -19 5 -12 2 6 2 18 0 25 -3 6 -5 1 -5 -13z"/>
<path d="M2291 1774 c0 -11 3 -14 6 -6 3 7 2 16 -1 19 -3 4 -6 -2 -5 -13z"/>
<path d="M3471 1764 c0 -11 3 -14 6 -6 3 7 2 16 -1 19 -3 4 -6 -2 -5 -13z"/>
<path d="M6374 1745 c36 -52 40 -88 22 -190 -9 -50 -29 -182 -45 -293 -16
-112 -31 -205 -33 -206 -2 -2 -29 -22 -61 -46 l-58 -43 -34 16 c-32 15 -34 15
-28 -1 4 -9 11 -21 17 -25 8 -6 7 -10 -3 -14 -7 -3 -50 -31 -95 -61 -117 -81
-153 -91 -322 -92 -144 0 -183 9 -147 35 19 14 9 36 -15 34 -15 -1 -15 -2 1
-6 21 -6 22 -19 1 -27 -9 -4 -51 13 -99 39 -80 44 -83 47 -75 73 4 15 17 44
30 65 28 47 19 49 -10 2 -12 -20 -35 -42 -51 -50 -26 -14 -32 -14 -66 3 -55
28 -97 37 -48 11 67 -36 256 -150 318 -192 32 -21 87 -52 123 -69 48 -23 64
-35 65 -51 1 -14 3 -16 6 -7 2 8 50 44 106 80 56 36 130 86 164 112 35 26 82
58 105 72 24 14 72 48 106 76 35 28 66 49 70 46 3 -3 -2 -25 -11 -48 -9 -23
-15 -43 -13 -45 11 -11 39 108 81 343 62 349 63 365 27 433 -16 30 -34 57 -41
59 -6 2 0 -13 13 -33z m-984 -815 c0 -5 -7 -10 -16 -10 -8 0 -12 5 -9 10 3 6
10 10 16 10 5 0 9 -4 9 -10z m520 -144 c0 -1 -22 -16 -48 -33 -43 -27 -55 -29
-107 -25 -33 3 -73 13 -90 23 l-30 19 105 1 c58 1 116 5 130 9 30 10 40 11 40
6z m-120 -78 c0 -11 -38 -10 -44 1 -3 5 5 8 19 7 14 0 25 -4 25 -8z"/>
<path d="M2271 1744 c0 -11 3 -14 6 -6 3 7 2 16 -1 19 -3 4 -6 -2 -5 -13z"/>
<path d="M2302 1735 c0 -11 3 -29 8 -40 11 -25 11 1 0 35 -6 20 -8 21 -8 5z"/>
<path d="M3501 1734 c0 -11 3 -14 6 -6 3 7 2 16 -1 19 -3 4 -6 -2 -5 -13z"/>
<path d="M5770 1739 c0 -5 10 -9 23 -9 12 0 112 -7 222 -15 204 -15 272 -18
264 -11 -2 2 -101 11 -219 20 -118 9 -232 18 -252 20 -21 2 -38 0 -38 -5z"/>
<path d="M3481 1714 c0 -11 3 -14 6 -6 3 7 2 16 -1 19 -3 4 -6 -2 -5 -13z"/>
<path d="M5678 1715 c-4 -11 -6 -119 -3 -240 l4 -220 38 -16 c35 -14 36 -17
18 -26 -33 -18 -161 -62 -257 -89 -71 -20 -269 -101 -285 -117 -9 -10 33 -116
55 -140 15 -16 79 -64 142 -108 63 -44 147 -104 185 -135 39 -31 93 -67 122
-82 l52 -26 43 29 c24 15 117 83 208 150 91 67 191 139 222 161 32 21 57 42
58 46 0 14 -265 -161 -432 -284 l-107 -79 -134 100 c-74 55 -176 125 -228 156
-52 31 -106 68 -122 83 -29 27 -54 99 -40 113 16 15 199 91 300 124 56 19 136
49 177 69 l77 35 127 -48 c70 -26 165 -60 212 -75 47 -15 93 -31 103 -37 9 -5
17 -6 17 -2 0 45 104 586 117 606 3 5 0 8 -7 5 -7 -2 -19 -20 -25 -39 -18 -52
-64 -309 -78 -431 -6 -60 -16 -108 -21 -108 -6 0 -107 31 -227 70 l-216 70 -6
91 c-4 51 -8 156 -8 233 -1 129 -2 135 -11 76 -5 -36 -6 -138 -3 -227 4 -90 5
-163 2 -163 -2 0 -18 5 -36 11 -28 10 -31 14 -27 43 12 78 14 152 8 291 -4 83
-10 141 -14 130z"/>
<path d="M2281 1704 c0 -11 3 -14 6 -6 3 7 2 16 -1 19 -3 4 -6 -2 -5 -13z"/>
<path d="M3511 1694 c0 -11 3 -14 6 -6 3 7 2 16 -1 19 -3 4 -6 -2 -5 -13z"/>
<path d="M3491 1674 c0 -11 3 -14 6 -6 3 7 2 16 -1 19 -3 4 -6 -2 -5 -13z"/>
<path d="M2291 1664 c0 -11 3 -14 6 -6 3 7 2 16 -1 19 -3 4 -6 -2 -5 -13z"/>
<path d="M2321 1654 c0 -11 3 -14 6 -6 3 7 2 16 -1 19 -3 4 -6 -2 -5 -13z"/>
<path d="M3521 1654 c0 -11 3 -14 6 -6 3 7 2 16 -1 19 -3 4 -6 -2 -5 -13z"/>
<path d="M3501 1640 c0 -8 4 -24 9 -35 5 -13 9 -14 9 -5 0 8 -4 24 -9 35 -5
13 -9 14 -9 5z"/>
<path d="M2301 1630 c0 -8 4 -24 9 -35 5 -13 9 -14 9 -5 0 8 -4 24 -9 35 -5
13 -9 14 -9 5z"/>
<path d="M2331 1624 c-1 -15 30 -106 35 -101 2 2 -5 28 -15 58 -11 30 -20 49
-20 43z"/>
<path d="M3531 1614 c0 -11 3 -14 6 -6 3 7 2 16 -1 19 -3 4 -6 -2 -5 -13z"/>
<path d="M3521 1564 c0 -11 3 -14 6 -6 3 7 2 16 -1 19 -3 4 -6 -2 -5 -13z"/>
<path d="M3551 1550 c0 -8 4 -24 9 -35 5 -13 9 -14 9 -5 0 8 -4 24 -9 35 -5
13 -9 14 -9 5z"/>
<path d="M2331 1530 c0 -8 4 -22 9 -30 12 -18 12 -2 0 25 -6 13 -9 15 -9 5z"/>
<path d="M3541 1500 c0 -8 4 -24 9 -35 5 -13 9 -14 9 -5 0 8 -4 24 -9 35 -5
13 -9 14 -9 5z"/>
<path d="M2350 1476 c0 -13 62 -157 66 -153 2 2 -10 37 -27 78 -31 74 -39 89
-39 75z"/>
<path d="M2380 1475 c0 -5 5 -17 10 -25 5 -8 10 -10 10 -5 0 6 -5 17 -10 25
-5 8 -10 11 -10 5z"/>
<path d="M2400 1425 c0 -5 5 -17 10 -25 5 -8 10 -10 10 -5 0 6 -5 17 -10 25
-5 8 -10 11 -10 5z"/>
<path d="M3591 1420 c0 -8 4 -24 9 -35 5 -13 9 -14 9 -5 0 8 -4 24 -9 35 -5
13 -9 14 -9 5z"/>
<path d="M2420 1376 c0 -10 90 -186 95 -186 5 0 -82 179 -91 189 -2 2 -4 1 -4
-3z"/>
<path d="M2420 1306 c0 -11 30 -66 36 -66 2 0 -3 15 -12 33 -19 36 -24 44 -24
33z"/>
<path d="M2500 1150 c6 -11 13 -20 16 -20 2 0 0 9 -6 20 -6 11 -13 20 -16 20
-2 0 0 -9 6 -20z"/>
<path d="M5865 1130 c119 -14 190 -42 240 -94 24 -25 26 -26 14 -6 -36 57
-166 111 -263 109 l-51 -2 60 -7z"/>
<path d="M5740 1121 c0 -5 14 -14 30 -20 l31 -10 -15 -36 c-9 -20 -11 -33 -6
-30 5 3 14 21 20 40 11 34 13 35 66 35 68 0 147 -30 192 -72 25 -24 31 -27 23
-11 -25 49 -129 91 -234 94 -39 1 -80 6 -89 11 -11 5 -18 5 -18 -1z"/>
<path d="M5615 1069 c-27 -11 -54 -25 -59 -30 -18 -17 8 -9 69 21 69 34 64 38
-10 9z"/>
<path d="M5493 1043 c9 -2 25 -2 35 0 9 3 1 5 -18 5 -19 0 -27 -2 -17 -5z"/>
<path d="M5844 1019 c-3 -6 -2 -15 3 -20 5 -5 9 -1 9 11 0 23 -2 24 -12 9z"/>
<path d="M5879 1013 c-13 -16 -12 -17 4 -4 9 7 17 15 17 17 0 8 -8 3 -21 -13z"/>
<path d="M5630 1010 c8 -5 20 -10 25 -10 6 0 3 5 -5 10 -8 5 -19 10 -25 10 -5
0 -3 -5 5 -10z"/>
<path d="M5904 975 c-8 -19 3 -35 25 -35 19 0 41 19 41 35 0 5 -5 2 -11 -7 -5
-10 -19 -18 -30 -18 -16 0 -19 5 -14 20 7 23 -3 28 -11 5z"/>
<path d="M5436 965 c-3 -9 -6 -22 -5 -28 0 -7 5 -1 10 12 5 13 8 26 5 28 -2 2
-6 -3 -10 -12z"/>
<path d="M5558 933 c7 -3 16 -2 19 1 4 3 -2 6 -13 5 -11 0 -14 -3 -6 -6z"/>
<path d="M5834 912 c5 -7 -1 -16 -16 -21 -23 -10 -23 -10 -1 -10 27 -1 40 17
23 32 -10 9 -11 9 -6 -1z"/>
<path d="M5982 908 c-15 -15 -15 -28 0 -28 6 0 8 3 5 7 -4 3 -2 12 4 20 14 16
7 17 -9 1z"/>
<path d="M5635 899 c-11 -16 -1 -19 13 -3 7 8 8 14 3 14 -5 0 -13 -5 -16 -11z"/>
<path d="M5893 843 c23 -6 12 -23 -15 -23 -12 0 -19 -3 -15 -6 3 -4 18 -4 32
0 31 8 34 36 3 35 -18 -1 -19 -2 -5 -6z"/>
<path d="M5752 610 c0 -14 2 -19 5 -12 2 6 2 18 0 25 -3 6 -5 1 -5 -13z"/>
</g>
</svg>
